#N canvas 140 25 825 674 12;
#X msg 26 49 \; pd dsp \$1 \;;
#X obj 26 26 tgl 19 0 empty empty start\ sound 0 -10 0 12 #c6ffc7 #000000 #000000 0 1;
#N canvas 353 378 450 278 (subpatch) 0;
#X array data_shape 100 float 1;
#A 0 0.578571 0.578571 0.578571 0.578571 0.578571 0.578571 0.578571 0.578571 0.578571 0.578571 0.821418 0.692852 0.667853 0.60357 0.575 0.164304 0.157161 0.150019 0.142876 0.135734 0.128591 0.114306 0.103592 0.0893072 0.0821646 0.060737 0.0535945 0.0500232 0.0428807 0.0428807 0.0571657 0.0785934 0.103592 0.139305 0.207159 0.307155 0.339296 0.35001 0.353581 0.364295 0.367866 0.37858 0.385723 0.389294 0.394651 0.400008 0.403579 0.414293 0.417864 0.421435 0.425007 0.40715 0.160733 0.128591 0.0964497 0.0821646 0.0857359 0.0928785 0.100021 0.117877 0.128591 0.135734 0.146448 0.160733 0.178589 0.196445 0.221444 0.257157 0.282156 0.353581 0.414293 0.453577 0.492861 0.532145 0.564286 0.607142 0.632141 0.653568 0.674996 0.692852 0.71428 0.735707 0.764278 0.785705 0.810704 0.832132 0.842846 0.864273 0.878558 0.907128 0.928556 0.93927 0.946412 0.953555 0.960698 0.974983 0.978554 0.989268 0.992839 0.989268;
#X coords 0 1 99 0 177 131 1 0 0;
#X restore 565 28 graph;
#N canvas 63 88 450 300 choice 0;
#X obj 94 157 inlet;
#X obj 94 179 spigot;
#X obj 159 158 inlet;
#X obj 159 182 spigot;
#X obj 203 114 - 1;
#X obj 203 136 tgl 15 0 empty empty empty 17 7 0 10 #fcfcfc #000000 #000000 0 1;
#X obj 203 157 change;
#X obj 301 53 inlet;
#X obj 91 235 outlet;
#X connect 0 0 1 0;
#X connect 1 0 8 0;
#X connect 2 0 3 0;
#X connect 3 0 8 0;
#X connect 4 0 5 0;
#X connect 5 0 6 0;
#X connect 6 0 3 1;
#X connect 7 0 4 0;
#X connect 7 0 1 1;
#X restore 253 148 pd choice;
#X obj 283 98 r bangdata;
#X obj 283 122 bng 19 250 50 0 empty empty empty 0 -10 0 12 #fcfcfc #000000 #000000;
#X obj 253 72 r bangsimulateur;
#X obj 253 96 bng 19 250 50 0 empty empty empty 0 -10 0 12 #fcfcfc #000000 #000000;
#X obj 382 129 tgl 19 0 empty empty choix_simulateur_data 0 -10 0 12 #c6ffc7 #000000 #000000 0 1;
#X obj 382 87 loadbang;
#N canvas 150 175 689 532 data_receive 0;
#X obj 264 132 oscformat;
#X obj 185 109 oscparse;
#X msg 185 62 listen 10300;
#X obj 185 87 netreceive -u -b 10300;
#X obj 274 200 bng 15 250 50 0 empty empty empty 17 7 0 10 #fcfcfc #000000 #000000;
#X obj 185 156 route data_clock data_bang;
#X obj 185 132 route list;
#X obj 274 179 sel 1;
#X obj 285 312 f;
#X obj 285 356 sel 0;
#X obj 265 377 bng 15 250 50 0 empty empty empty 17 7 0 10 #fcfcfc #000000 #000000;
#X obj 319 311 + 1;
#X obj 389 255 timer;
#X floatatom 389 277 5 0 0 0 - - - 0;
#X obj 389 215 tgl 15 0 empty empty empty 17 7 0 10 #fcfcfc #000000 #000000 0 1;
#X obj 389 233 sel 0 1;
#X obj 389 320 tgl 15 0 empty empty empty 17 7 0 10 #fcfcfc #000000 #000000 0 1;
#X obj 235 288 spigot;
#X obj 285 288 spigot;
#X obj 324 222 - 1;
#X obj 324 244 tgl 15 0 empty empty empty 17 7 0 10 #fcfcfc #000000 #000000 0 1;
#X obj 324 265 change;
#X obj 285 377 bng 15 250 50 0 empty empty empty 17 7 0 10 #fcfcfc #000000 #000000;
#X text 64 60 commande de unity -> un clock de 0 à 1 + des bangs (envoi de données), f 15;
#X obj 265 421 s bangdata;
#X obj 285 334 % 100;
#X text 389 128 quand le tps entre 2 données > 10ms il prend tout les bangs sinon filtre tous les 100 bangs, f 20;
#X obj 389 299 > 10;
#X connect 1 0 6 0;
#X connect 2 0 3 0;
#X connect 3 0 1 0;
#X connect 4 0 14 0;
#X connect 4 0 17 0;
#X connect 4 0 18 0;
#X connect 5 1 7 0;
#X connect 6 0 5 0;
#X connect 7 0 4 0;
#X connect 8 0 11 0;
#X connect 8 0 25 0;
#X connect 9 0 22 0;
#X connect 10 0 24 0;
#X connect 11 0 8 1;
#X connect 12 0 13 0;
#X connect 13 0 27 0;
#X connect 14 0 15 0;
#X connect 15 0 12 0;
#X connect 15 1 12 1;
#X connect 16 0 17 1;
#X connect 16 0 19 0;
#X connect 17 0 10 0;
#X connect 18 0 8 0;
#X connect 19 0 20 0;
#X connect 20 0 21 0;
#X connect 21 0 18 1;
#X connect 22 0 24 0;
#X connect 25 0 9 0;
#X connect 27 0 16 0;
#X restore 254 17 pd data_receive;
#N canvas 179 204 380 532 data_simul 0;
#X obj 120 159 snapshot~;
#X floatatom 119 184 6 0 0 0 - - - 0;
#X obj 127 110 tgl 19 0 empty empty empty 0 -10 0 12 #fcfcfc #000000 #000000 0 1;
#X obj 127 133 metro 10;
#X obj 121 59 *~ 100;
#X obj 87 447 metro;
#X floatatom 119 231 5 0 0 0 - - - 0;
#X obj 119 373 -;
#X obj 119 325 t b a;
#X floatatom 119 397 5 0 0 0 - - - 0;
#X obj 119 254 max 0;
#X floatatom 119 302 5 0 0 0 - - - 0;
#X obj 87 424 tgl 19 0 empty empty empty 0 -10 0 12 #fcfcfc #000000 #000000 0 1;
#X obj 121 35 phasor~ 0.02;
#X obj 119 207 * 500;
#X obj 119 278 min 500;
#X msg 119 349 500;
#X obj 119 420 + 10;
#X obj 121 83 tabread~ data_shape;
#X obj 55 398 loadbang;
#X obj 151 110 loadbang;
#X obj 87 471 s bangsimulateur;
#X connect 0 0 1 0;
#X connect 1 0 14 0;
#X connect 2 0 3 0;
#X connect 3 0 0 0;
#X connect 4 0 18 0;
#X connect 5 0 21 0;
#X connect 6 0 10 0;
#X connect 7 0 9 0;
#X connect 8 0 16 0;
#X connect 8 1 7 1;
#X connect 9 0 17 0;
#X connect 10 0 15 0;
#X connect 11 0 8 0;
#X connect 12 0 5 0;
#X connect 13 0 4 0;
#X connect 14 0 6 0;
#X connect 15 0 11 0;
#X connect 16 0 7 0;
#X connect 17 0 5 1;
#X connect 18 0 0 0;
#X connect 19 0 12 0;
#X connect 20 0 2 0;
#X restore 253 42 pd data_simul;
#X text 409 127 X = sim O = data;
#X text 463 29 dessiner la courbe du nombre de data (simulateur), f 12;
#N canvas 129 31 984 723 effacement 0;
#X obj 134 60 env~;
#X floatatom 134 84 5 0 0 0 - - - 0;
#X obj 134 107 clip 0 100;
#X floatatom 134 156 5 0 0 0 - - - 0;
#X obj 134 178 t b a;
#X msg 99 197 1;
#X obj 99 221 -;
#X floatatom 99 268 5 0 0 0 - - - 0;
#X obj 99 245 clip 0 1;
#X obj 134 36 receive~ frag1;
#X obj 309 63 env~;
#X floatatom 309 87 5 0 0 0 - - - 0;
#X obj 309 110 clip 0 100;
#X floatatom 309 159 5 0 0 0 - - - 0;
#X obj 309 181 t b a;
#X msg 274 200 1;
#X obj 274 224 -;
#X floatatom 274 271 5 0 0 0 - - - 0;
#X obj 274 248 clip 0 1;
#X obj 309 39 receive~ frag2;
#X obj 491 64 env~;
#X floatatom 491 88 5 0 0 0 - - - 0;
#X obj 491 111 clip 0 100;
#X floatatom 491 160 5 0 0 0 - - - 0;
#X obj 491 182 t b a;
#X msg 456 201 1;
#X obj 456 225 -;
#X floatatom 456 272 5 0 0 0 - - - 0;
#X obj 456 249 clip 0 1;
#X obj 666 67 env~;
#X floatatom 666 91 5 0 0 0 - - - 0;
#X obj 666 114 clip 0 100;
#X floatatom 666 163 5 0 0 0 - - - 0;
#X obj 666 185 t b a;
#X msg 631 204 1;
#X obj 631 228 -;
#X floatatom 631 275 5 0 0 0 - - - 0;
#X obj 631 252 clip 0 1;
#X obj 120 399 env~;
#X floatatom 120 423 5 0 0 0 - - - 0;
#X obj 120 446 clip 0 100;
#X floatatom 120 495 5 0 0 0 - - - 0;
#X obj 120 517 t b a;
#X msg 85 536 1;
#X obj 85 560 -;
#X floatatom 85 607 5 0 0 0 - - - 0;
#X obj 85 584 clip 0 1;
#X msg 85 629 \$1 200;
#X obj 295 402 env~;
#X floatatom 295 426 5 0 0 0 - - - 0;
#X obj 295 449 clip 0 100;
#X floatatom 295 498 5 0 0 0 - - - 0;
#X obj 295 520 t b a;
#X msg 260 539 1;
#X obj 260 563 -;
#X floatatom 260 610 5 0 0 0 - - - 0;
#X obj 260 587 clip 0 1;
#X msg 260 632 \$1 200;
#X obj 477 403 env~;
#X floatatom 477 427 5 0 0 0 - - - 0;
#X obj 477 450 clip 0 100;
#X floatatom 477 499 5 0 0 0 - - - 0;
#X obj 477 521 t b a;
#X msg 442 540 1;
#X obj 442 564 -;
#X floatatom 442 611 5 0 0 0 - - - 0;
#X obj 442 588 clip 0 1;
#X msg 442 633 \$1 200;
#X obj 652 406 env~;
#X floatatom 652 430 5 0 0 0 - - - 0;
#X obj 652 453 clip 0 100;
#X floatatom 652 502 5 0 0 0 - - - 0;
#X obj 652 524 t b a;
#X msg 617 543 1;
#X obj 617 567 -;
#X floatatom 617 614 5 0 0 0 - - - 0;
#X obj 617 591 clip 0 1;
#X msg 617 636 \$1 200;
#X obj 491 40 receive~ frag3;
#X obj 666 43 receive~ frag4;
#X obj 120 375 receive~ frag5;
#X obj 295 378 receive~ frag6;
#X obj 477 379 receive~ frag7;
#X obj 652 382 receive~ frag8;
#X obj 134 131 / 50;
#X obj 309 134 / 50;
#X obj 491 135 / 50;
#X obj 666 138 / 50;
#X obj 120 470 / 50;
#X obj 295 473 / 50;
#X obj 477 474 / 50;
#X obj 652 477 / 50;
#X obj 99 314 s effacement1;
#X obj 274 317 s effacement2;
#X obj 456 318 s effacement3;
#X obj 631 321 s effacement4;
#X obj 85 653 s effacement5;
#X obj 260 656 s effacement6;
#X obj 442 657 s effacement7;
#X obj 617 660 s effacement8;
#X msg 99 290 \$1 500;
#X msg 274 293 \$1 500;
#X msg 456 294 \$1 500;
#X msg 631 297 \$1 500;
#X obj 855 69 env~;
#X floatatom 855 93 5 0 0 0 - - - 0;
#X obj 855 116 clip 0 100;
#X floatatom 855 165 5 0 0 0 - - - 0;
#X obj 855 187 t b a;
#X msg 820 206 1;
#X obj 820 230 -;
#X floatatom 820 277 5 0 0 0 - - - 0;
#X obj 820 254 clip 0 1;
#X obj 855 45 receive~ star1;
#X obj 852 411 env~;
#X floatatom 852 435 5 0 0 0 - - - 0;
#X obj 852 458 clip 0 100;
#X floatatom 852 507 5 0 0 0 - - - 0;
#X obj 852 529 t b a;
#X msg 817 548 1;
#X obj 817 572 -;
#X floatatom 817 619 5 0 0 0 - - - 0;
#X obj 817 596 clip 0 1;
#X obj 852 387 receive~ star2;
#X obj 820 340 s effacement_S1;
#X obj 817 686 s effacement_S2;
#X msg 820 299 \$1 60;
#X msg 817 641 \$1 60;
#X obj 855 140 / 50;
#X obj 852 482 / 50;
#X connect 0 0 1 0;
#X connect 1 0 2 0;
#X connect 2 0 84 0;
#X connect 3 0 4 0;
#X connect 4 0 5 0;
#X connect 4 1 6 1;
#X connect 5 0 6 0;
#X connect 6 0 8 0;
#X connect 7 0 100 0;
#X connect 8 0 7 0;
#X connect 9 0 0 0;
#X connect 10 0 11 0;
#X connect 11 0 12 0;
#X connect 12 0 85 0;
#X connect 13 0 14 0;
#X connect 14 0 15 0;
#X connect 14 1 16 1;
#X connect 15 0 16 0;
#X connect 16 0 18 0;
#X connect 17 0 101 0;
#X connect 18 0 17 0;
#X connect 19 0 10 0;
#X connect 20 0 21 0;
#X connect 21 0 22 0;
#X connect 22 0 86 0;
#X connect 23 0 24 0;
#X connect 24 0 25 0;
#X connect 24 1 26 1;
#X connect 25 0 26 0;
#X connect 26 0 28 0;
#X connect 27 0 102 0;
#X connect 28 0 27 0;
#X connect 29 0 30 0;
#X connect 30 0 31 0;
#X connect 31 0 87 0;
#X connect 32 0 33 0;
#X connect 33 0 34 0;
#X connect 33 1 35 1;
#X connect 34 0 35 0;
#X connect 35 0 37 0;
#X connect 36 0 103 0;
#X connect 37 0 36 0;
#X connect 38 0 39 0;
#X connect 39 0 40 0;
#X connect 40 0 88 0;
#X connect 41 0 42 0;
#X connect 42 0 43 0;
#X connect 42 1 44 1;
#X connect 43 0 44 0;
#X connect 44 0 46 0;
#X connect 45 0 47 0;
#X connect 46 0 45 0;
#X connect 47 0 96 0;
#X connect 48 0 49 0;
#X connect 49 0 50 0;
#X connect 50 0 89 0;
#X connect 51 0 52 0;
#X connect 52 0 53 0;
#X connect 52 1 54 1;
#X connect 53 0 54 0;
#X connect 54 0 56 0;
#X connect 55 0 57 0;
#X connect 56 0 55 0;
#X connect 57 0 97 0;
#X connect 58 0 59 0;
#X connect 59 0 60 0;
#X connect 60 0 90 0;
#X connect 61 0 62 0;
#X connect 62 0 63 0;
#X connect 62 1 64 1;
#X connect 63 0 64 0;
#X connect 64 0 66 0;
#X connect 65 0 67 0;
#X connect 66 0 65 0;
#X connect 67 0 98 0;
#X connect 68 0 69 0;
#X connect 69 0 70 0;
#X connect 70 0 91 0;
#X connect 71 0 72 0;
#X connect 72 0 73 0;
#X connect 72 1 74 1;
#X connect 73 0 74 0;
#X connect 74 0 76 0;
#X connect 75 0 77 0;
#X connect 76 0 75 0;
#X connect 77 0 99 0;
#X connect 78 0 20 0;
#X connect 79 0 29 0;
#X connect 80 0 38 0;
#X connect 81 0 48 0;
#X connect 82 0 58 0;
#X connect 83 0 68 0;
#X connect 84 0 3 0;
#X connect 85 0 13 0;
#X connect 86 0 23 0;
#X connect 87 0 32 0;
#X connect 88 0 41 0;
#X connect 89 0 51 0;
#X connect 90 0 61 0;
#X connect 91 0 71 0;
#X connect 100 0 92 0;
#X connect 101 0 93 0;
#X connect 102 0 94 0;
#X connect 103 0 95 0;
#X connect 104 0 105 0;
#X connect 105 0 106 0;
#X connect 106 0 128 0;
#X connect 107 0 108 0;
#X connect 108 0 109 0;
#X connect 108 1 110 1;
#X connect 109 0 110 0;
#X connect 110 0 112 0;
#X connect 111 0 126 0;
#X connect 112 0 111 0;
#X connect 113 0 104 0;
#X connect 114 0 115 0;
#X connect 115 0 116 0;
#X connect 116 0 129 0;
#X connect 117 0 118 0;
#X connect 118 0 119 0;
#X connect 118 1 120 1;
#X connect 119 0 120 0;
#X connect 120 0 122 0;
#X connect 121 0 127 0;
#X connect 122 0 121 0;
#X connect 123 0 114 0;
#X connect 128 0 107 0;
#X connect 129 0 117 0;
#X restore 41 262 pd effacement;
#N canvas 0 25 1364 847 toile_fond 0;
#X obj 43 159 *~;
#X obj 61 137 line~;
#X obj 43 189 spat4;
#X obj 107 137 loadbang;
#N canvas 63 88 811 350 harmoniques 0;
#X obj 52 15 loadbang;
#X obj 52 135 *~ 1;
#X obj 118 111 osc~ 100;
#X obj 52 224 outlet~;
#X obj 183 111 osc~ 100;
#X obj 248 110 osc~ 100;
#X obj 313 110 osc~ 100;
#X obj 379 110 osc~ 100;
#X obj 444 110 osc~ 100;
#X obj 509 109 osc~ 100;
#X obj 248 134 *~ 0.5;
#X obj 118 135 *~ 1;
#X obj 183 135 *~ 1;
#X obj 118 88 * 1.2;
#X obj 52 111 osc~ 100;
#X obj 183 88 * 1.5;
#X obj 248 87 * 2;
#X obj 313 87 * 3;
#X obj 509 86 * 8;
#X obj 509 133 *~ 0.1;
#X obj 444 134 *~ 0.1;
#X msg 52 38 100;
#X obj 444 87 * 7;
#X obj 379 87 * 4;
#X obj 379 134 *~ 0.4;
#X obj 313 134 *~ 0.4;
#X connect 0 0 21 0;
#X connect 1 0 3 0;
#X connect 2 0 11 0;
#X connect 4 0 12 0;
#X connect 5 0 10 0;
#X connect 6 0 25 0;
#X connect 7 0 24 0;
#X connect 8 0 20 0;
#X connect 9 0 19 0;
#X connect 10 0 3 0;
#X connect 11 0 3 0;
#X connect 13 0 2 0;
#X connect 14 0 1 0;
#X connect 15 0 4 0;
#X connect 16 0 5 0;
#X connect 17 0 6 0;
#X connect 18 0 9 0;
#X connect 21 0 13 0;
#X connect 21 0 14 0;
#X connect 21 0 15 0;
#X connect 21 0 16 0;
#X connect 21 0 17 0;
#X connect 21 0 18 0;
#X connect 21 0 22 0;
#X connect 21 0 23 0;
#X connect 22 0 8 0;
#X connect 23 0 7 0;
#X connect 25 0 3 0;
#X restore 43 5 pd harmoniques;
#X obj 296 159 *~;
#X obj 314 137 line~;
#X obj 296 189 spat4;
#X obj 360 137 loadbang;
#N canvas 383 306 811 350 harmoniques 0;
#X obj 52 111 osc~ 100;
#X obj 52 15 loadbang;
#X obj 52 135 *~ 1;
#X obj 118 111 osc~ 100;
#X obj 52 224 outlet~;
#X obj 183 111 osc~ 100;
#X obj 248 110 osc~ 100;
#X obj 313 110 osc~ 100;
#X obj 379 110 osc~ 100;
#X obj 444 110 osc~ 100;
#X obj 509 109 osc~ 100;
#X msg 52 38 150;
#X obj 118 88 * 1.3;
#X obj 183 88 * 1.8;
#X obj 248 87 * 2;
#X obj 313 87 * 2.2;
#X obj 379 87 * 3;
#X obj 444 87 * 5;
#X obj 183 135 *~ 0.9;
#X obj 118 135 *~ 1;
#X obj 248 134 *~ 0.7;
#X obj 313 134 *~ 0.7;
#X obj 379 134 *~ 0.3;
#X obj 444 134 *~ 0.1;
#X obj 509 133 *~ 0.1;
#X obj 509 86 * 5.1;
#X connect 0 0 2 0;
#X connect 1 0 11 0;
#X connect 2 0 4 0;
#X connect 3 0 19 0;
#X connect 5 0 18 0;
#X connect 6 0 20 0;
#X connect 7 0 21 0;
#X connect 8 0 22 0;
#X connect 9 0 23 0;
#X connect 10 0 24 0;
#X connect 11 0 0 0;
#X connect 11 0 12 0;
#X connect 11 0 13 0;
#X connect 11 0 14 0;
#X connect 11 0 15 0;
#X connect 11 0 16 0;
#X connect 11 0 17 0;
#X connect 11 0 25 0;
#X connect 12 0 3 0;
#X connect 13 0 5 0;
#X connect 14 0 6 0;
#X connect 15 0 7 0;
#X connect 16 0 8 0;
#X connect 17 0 9 0;
#X connect 18 0 4 0;
#X connect 19 0 4 0;
#X connect 23 0 4 0;
#X connect 24 0 4 0;
#X connect 25 0 10 0;
#X restore 296 10 pd harmoniques;
#X msg 360 165 0.15;
#X obj 552 158 *~;
#X obj 570 136 line~;
#X obj 552 188 spat4;
#X obj 616 136 loadbang;
#N canvas 63 88 811 350 harmoniques 0;
#X obj 52 111 osc~ 100;
#X obj 52 15 loadbang;
#X obj 52 135 *~ 1;
#X obj 118 111 osc~ 100;
#X obj 52 224 outlet~;
#X obj 183 111 osc~ 100;
#X obj 248 110 osc~ 100;
#X obj 313 110 osc~ 100;
#X obj 379 110 osc~ 100;
#X obj 444 110 osc~ 100;
#X obj 509 109 osc~ 100;
#X msg 52 38 100;
#X obj 118 88 * 1.1;
#X obj 183 88 * 1.2;
#X obj 248 87 * 2;
#X obj 313 87 * 3;
#X obj 379 87 * 3.1;
#X obj 444 87 * 4.5;
#X obj 509 86 * 5;
#X obj 313 134 *~ 0.4;
#X obj 379 134 *~ 0.2;
#X obj 444 134 *~ 0.1;
#X obj 509 133 *~ 0.1;
#X obj 118 135 *~ 1;
#X obj 183 135 *~ 0.9;
#X obj 248 134 *~ 0.9;
#X connect 0 0 2 0;
#X connect 1 0 11 0;
#X connect 2 0 4 0;
#X connect 3 0 23 0;
#X connect 5 0 24 0;
#X connect 6 0 25 0;
#X connect 7 0 19 0;
#X connect 8 0 20 0;
#X connect 9 0 21 0;
#X connect 10 0 22 0;
#X connect 11 0 0 0;
#X connect 11 0 12 0;
#X connect 11 0 13 0;
#X connect 11 0 14 0;
#X connect 11 0 15 0;
#X connect 11 0 16 0;
#X connect 11 0 17 0;
#X connect 11 0 18 0;
#X connect 12 0 3 0;
#X connect 13 0 5 0;
#X connect 14 0 6 0;
#X connect 15 0 7 0;
#X connect 16 0 8 0;
#X connect 17 0 9 0;
#X connect 18 0 10 0;
#X connect 19 0 4 0;
#X connect 21 0 4 0;
#X connect 22 0 4 0;
#X connect 23 0 4 0;
#X restore 552 9 pd harmoniques;
#X msg 616 164 0.15;
#X msg 424 166 0.02;
#X obj 797 163 *~;
#X obj 815 141 line~;
#X obj 797 193 spat4;
#X obj 861 141 loadbang;
#N canvas 63 88 811 350 harmoniques 0;
#X obj 52 111 osc~ 100;
#X obj 52 15 loadbang;
#X obj 52 135 *~ 1;
#X obj 118 111 osc~ 100;
#X obj 52 224 outlet~;
#X obj 183 111 osc~ 100;
#X obj 248 110 osc~ 100;
#X obj 313 110 osc~ 100;
#X obj 118 135 *~ 0.9;
#X obj 183 135 *~ 0.8;
#X obj 379 110 osc~ 100;
#X obj 444 110 osc~ 100;
#X obj 509 109 osc~ 100;
#X msg 52 38 125;
#X obj 118 88 * 1.2;
#X obj 183 88 * 1.4;
#X obj 248 87 * 1.6;
#X obj 313 87 * 1.8;
#X obj 379 87 * 2;
#X obj 444 87 * 4;
#X obj 509 86 * 8;
#X obj 509 133 *~ 0.1;
#X obj 444 134 *~ 0.2;
#X obj 379 134 *~ 0.5;
#X obj 313 134 *~ 0.7;
#X obj 248 134 *~ 0.7;
#X connect 0 0 2 0;
#X connect 1 0 13 0;
#X connect 2 0 4 0;
#X connect 3 0 8 0;
#X connect 5 0 9 0;
#X connect 6 0 25 0;
#X connect 7 0 24 0;
#X connect 8 0 4 0;
#X connect 9 0 4 0;
#X connect 10 0 23 0;
#X connect 11 0 22 0;
#X connect 12 0 21 0;
#X connect 13 0 0 0;
#X connect 13 0 14 0;
#X connect 13 0 15 0;
#X connect 13 0 16 0;
#X connect 13 0 17 0;
#X connect 13 0 18 0;
#X connect 13 0 19 0;
#X connect 13 0 20 0;
#X connect 14 0 3 0;
#X connect 15 0 5 0;
#X connect 16 0 6 0;
#X connect 17 0 7 0;
#X connect 18 0 10 0;
#X connect 19 0 11 0;
#X connect 20 0 12 0;
#X connect 21 0 4 0;
#X connect 22 0 4 0;
#X connect 23 0 4 0;
#X connect 24 0 4 0;
#X connect 25 0 4 0;
#X restore 797 10 pd harmoniques;
#X msg 861 169 0.15;
#X obj 43 591 *~;
#X obj 61 569 line~;
#X obj 43 621 spat4;
#X obj 107 569 loadbang;
#N canvas 63 88 811 350 harmoniques 0;
#X obj 52 111 osc~ 100;
#X obj 52 15 loadbang;
#X obj 52 135 *~ 1;
#X obj 118 111 osc~ 100;
#X obj 52 224 outlet~;
#X obj 183 111 osc~ 100;
#X obj 248 110 osc~ 100;
#X obj 313 110 osc~ 100;
#X obj 183 135 *~ 0.8;
#X obj 379 110 osc~ 100;
#X obj 444 110 osc~ 100;
#X obj 509 109 osc~ 100;
#X msg 52 38 50;
#X obj 118 88 * 2;
#X obj 183 88 * 3;
#X obj 248 87 * 4;
#X obj 313 87 * 5;
#X obj 379 87 * 6;
#X obj 444 87 * 7;
#X obj 509 86 * 8;
#X obj 118 135 *~ 0.9;
#X obj 248 134 *~ 0.5;
#X obj 313 134 *~ 0.4;
#X obj 444 134 *~ 0.5;
#X obj 509 133 *~ 0.5;
#X obj 379 134 *~ 0.4;
#X connect 0 0 2 0;
#X connect 1 0 12 0;
#X connect 2 0 4 0;
#X connect 3 0 20 0;
#X connect 5 0 8 0;
#X connect 6 0 21 0;
#X connect 7 0 22 0;
#X connect 9 0 25 0;
#X connect 10 0 23 0;
#X connect 11 0 24 0;
#X connect 12 0 0 0;
#X connect 12 0 13 0;
#X connect 12 0 14 0;
#X connect 12 0 15 0;
#X connect 12 0 16 0;
#X connect 12 0 17 0;
#X connect 12 0 18 0;
#X connect 12 0 19 0;
#X connect 13 0 3 0;
#X connect 14 0 5 0;
#X connect 15 0 6 0;
#X connect 16 0 7 0;
#X connect 17 0 9 0;
#X connect 18 0 10 0;
#X connect 19 0 11 0;
#X connect 20 0 4 0;
#X connect 21 0 4 0;
#X connect 25 0 4 0;
#X restore 43 441 pd harmoniques;
#X obj 296 591 *~;
#X obj 314 569 line~;
#X obj 296 621 spat4;
#X obj 360 569 loadbang;
#N canvas 63 88 811 350 harmoniques 0;
#X obj 52 111 osc~ 100;
#X obj 52 15 loadbang;
#X obj 52 135 *~ 1;
#X obj 118 111 osc~ 100;
#X obj 52 224 outlet~;
#X obj 183 111 osc~ 100;
#X obj 248 110 osc~ 100;
#X obj 313 110 osc~ 100;
#X obj 379 110 osc~ 100;
#X obj 444 110 osc~ 100;
#X obj 509 109 osc~ 100;
#X obj 118 88 * 1.25;
#X obj 183 88 * 1.5;
#X obj 248 87 * 1.75;
#X obj 313 87 * 2;
#X obj 379 87 * 3;
#X obj 509 133 *~ 0.1;
#X obj 183 135 *~ 0.8;
#X obj 118 135 *~ 0.9;
#X msg 52 38 150;
#X obj 379 134 *~ 0.2;
#X obj 444 134 *~ 0.2;
#X obj 313 134 *~ 0.5;
#X obj 248 134 *~ 0.9;
#X obj 444 87 * 3.5;
#X obj 509 86 * 4;
#X connect 0 0 2 0;
#X connect 1 0 19 0;
#X connect 2 0 4 0;
#X connect 3 0 18 0;
#X connect 5 0 17 0;
#X connect 6 0 23 0;
#X connect 7 0 22 0;
#X connect 8 0 20 0;
#X connect 9 0 21 0;
#X connect 10 0 16 0;
#X connect 11 0 3 0;
#X connect 12 0 5 0;
#X connect 13 0 6 0;
#X connect 14 0 7 0;
#X connect 15 0 8 0;
#X connect 16 0 4 0;
#X connect 17 0 4 0;
#X connect 18 0 4 0;
#X connect 19 0 0 0;
#X connect 19 0 11 0;
#X connect 19 0 12 0;
#X connect 19 0 13 0;
#X connect 19 0 14 0;
#X connect 19 0 15 0;
#X connect 19 0 24 0;
#X connect 19 0 25 0;
#X connect 22 0 4 0;
#X connect 24 0 9 0;
#X connect 25 0 10 0;
#X restore 296 441 pd harmoniques;
#X msg 360 597 0.15;
#X obj 552 590 *~;
#X obj 570 568 line~;
#X obj 552 620 spat4;
#X obj 616 568 loadbang;
#N canvas 63 88 811 350 harmoniques 0;
#X obj 52 111 osc~ 100;
#X obj 52 15 loadbang;
#X obj 52 135 *~ 1;
#X obj 118 111 osc~ 100;
#X obj 118 88 * 2;
#X obj 52 224 outlet~;
#X obj 183 111 osc~ 100;
#X obj 248 110 osc~ 100;
#X obj 313 110 osc~ 100;
#X obj 118 135 *~ 0.9;
#X obj 183 135 *~ 0.8;
#X obj 248 134 *~ 0.5;
#X obj 379 110 osc~ 100;
#X obj 444 110 osc~ 100;
#X obj 509 109 osc~ 100;
#X msg 52 38 75;
#X obj 183 88 * 2.5;
#X obj 248 87 * 3;
#X obj 313 87 * 3.5;
#X obj 379 87 * 4;
#X obj 444 87 * 4.5;
#X obj 313 134 *~ 0.5;
#X obj 379 134 *~ 0.5;
#X obj 444 134 *~ 0.4;
#X obj 509 86 * 6;
#X obj 509 133 *~ 0.4;
#X connect 0 0 2 0;
#X connect 1 0 15 0;
#X connect 2 0 5 0;
#X connect 3 0 9 0;
#X connect 4 0 3 0;
#X connect 6 0 10 0;
#X connect 7 0 11 0;
#X connect 8 0 21 0;
#X connect 9 0 5 0;
#X connect 11 0 5 0;
#X connect 12 0 22 0;
#X connect 13 0 23 0;
#X connect 14 0 25 0;
#X connect 15 0 0 0;
#X connect 15 0 4 0;
#X connect 15 0 16 0;
#X connect 15 0 17 0;
#X connect 15 0 18 0;
#X connect 15 0 19 0;
#X connect 15 0 20 0;
#X connect 15 0 24 0;
#X connect 16 0 6 0;
#X connect 17 0 7 0;
#X connect 18 0 8 0;
#X connect 19 0 12 0;
#X connect 20 0 13 0;
#X connect 22 0 5 0;
#X connect 24 0 14 0;
#X restore 552 435 pd harmoniques;
#X msg 616 596 0.15;
#X msg 680 597 0.03;
#X obj 797 595 *~;
#X obj 815 573 line~;
#X obj 797 625 spat4;
#X obj 861 573 loadbang;
#N canvas 63 88 811 350 harmoniques 0;
#X obj 52 111 osc~ 100;
#X obj 52 15 loadbang;
#X obj 118 111 osc~ 100;
#X obj 52 224 outlet~;
#X obj 183 111 osc~ 100;
#X obj 248 110 osc~ 100;
#X obj 313 110 osc~ 100;
#X obj 379 110 osc~ 100;
#X obj 444 110 osc~ 100;
#X obj 509 109 osc~ 100;
#X msg 52 38 125;
#X obj 118 88 * 1.4;
#X obj 183 88 * 1.6;
#X obj 248 87 * 2;
#X obj 313 87 * 2.5;
#X obj 379 87 * 2.75;
#X obj 444 87 * 4;
#X obj 509 86 * 4.5;
#X obj 509 133 *~ 0.1;
#X obj 444 134 *~ 0.2;
#X obj 379 134 *~ 0.5;
#X obj 313 134 *~ 0.5;
#X obj 248 134 *~ 0.7;
#X obj 183 135 *~ 0.7;
#X obj 118 135 *~ 0.8;
#X obj 52 135 *~ 1;
#X connect 0 0 25 0;
#X connect 1 0 10 0;
#X connect 2 0 24 0;
#X connect 4 0 23 0;
#X connect 5 0 22 0;
#X connect 6 0 21 0;
#X connect 7 0 20 0;
#X connect 8 0 19 0;
#X connect 9 0 18 0;
#X connect 10 0 0 0;
#X connect 10 0 11 0;
#X connect 10 0 12 0;
#X connect 10 0 13 0;
#X connect 10 0 14 0;
#X connect 10 0 15 0;
#X connect 10 0 16 0;
#X connect 10 0 17 0;
#X connect 11 0 2 0;
#X connect 12 0 4 0;
#X connect 13 0 5 0;
#X connect 14 0 6 0;
#X connect 15 0 7 0;
#X connect 16 0 8 0;
#X connect 17 0 9 0;
#X connect 19 0 3 0;
#X connect 20 0 3 0;
#X connect 22 0 3 0;
#X connect 24 0 3 0;
#X connect 25 0 3 0;
#X restore 797 440 pd harmoniques;
#X msg 861 601 0.15;
#X msg 107 597 0.15;
#X msg 680 165 -0.03;
#X msg 925 170 0.035;
#X msg 171 598 0.023;
#X msg 424 598 -0.027;
#X msg 925 602 -0.037;
#X msg 990 602 0.7;
#X obj 43 45 *~;
#X obj 73 29 receive~ sphere_vol;
#X obj 296 38 *~;
#X obj 326 38 receive~ sphere_vol;
#X obj 552 36 *~;
#X obj 582 36 receive~ sphere_vol;
#X obj 797 35 *~;
#X obj 827 35 receive~ sphere_vol;
#X obj 43 465 *~;
#X obj 73 465 receive~ sphere_vol;
#X obj 296 466 *~;
#X obj 326 466 receive~ sphere_vol;
#X obj 552 459 *~;
#X obj 582 459 receive~ sphere_vol;
#X obj 797 464 *~;
#X obj 827 464 receive~ sphere_vol;
#X obj 61 113 r effacement1;
#X obj 314 113 r effacement2;
#X obj 570 112 r effacement3;
#X obj 815 117 r effacement4;
#X obj 61 545 r effacement5;
#X obj 314 545 r effacement6;
#X obj 570 544 r effacement7;
#X obj 815 549 r effacement8;
#X msg 236 166 1;
#X msg 489 166 1;
#X msg 745 165 1;
#X msg 986 165 1;
#X msg 236 598 1;
#X msg 489 598 1;
#X msg 745 597 1;
#X msg 107 165 0.15;
#X msg 171 166 -0.05;
#X connect 0 0 2 0;
#X connect 1 0 0 1;
#X connect 3 0 86 0;
#X connect 3 0 87 0;
#X connect 3 0 79 0;
#X connect 4 0 55 0;
#X connect 5 0 7 0;
#X connect 6 0 5 1;
#X connect 8 0 10 0;
#X connect 8 0 17 0;
#X connect 8 0 80 0;
#X connect 9 0 57 0;
#X connect 10 0 7 1;
#X connect 11 0 13 0;
#X connect 12 0 11 1;
#X connect 14 0 16 0;
#X connect 14 0 49 0;
#X connect 14 0 81 0;
#X connect 15 0 59 0;
#X connect 16 0 13 1;
#X connect 17 0 7 2;
#X connect 18 0 20 0;
#X connect 19 0 18 1;
#X connect 21 0 23 0;
#X connect 21 0 50 0;
#X connect 21 0 82 0;
#X connect 22 0 61 0;
#X connect 23 0 20 1;
#X connect 24 0 26 0;
#X connect 25 0 24 1;
#X connect 27 0 48 0;
#X connect 27 0 51 0;
#X connect 27 0 83 0;
#X connect 28 0 63 0;
#X connect 29 0 31 0;
#X connect 30 0 29 1;
#X connect 32 0 34 0;
#X connect 32 0 52 0;
#X connect 32 0 84 0;
#X connect 33 0 65 0;
#X connect 34 0 31 1;
#X connect 35 0 37 0;
#X connect 36 0 35 1;
#X connect 38 0 40 0;
#X connect 38 0 41 0;
#X connect 38 0 85 0;
#X connect 39 0 67 0;
#X connect 40 0 37 1;
#X connect 41 0 37 2;
#X connect 42 0 44 0;
#X connect 43 0 42 1;
#X connect 45 0 47 0;
#X connect 45 0 53 0;
#X connect 45 0 54 0;
#X connect 46 0 69 0;
#X connect 47 0 44 1;
#X connect 48 0 26 1;
#X connect 49 0 13 2;
#X connect 50 0 20 2;
#X connect 51 0 26 2;
#X connect 52 0 31 2;
#X connect 53 0 44 2;
#X connect 54 0 44 3;
#X connect 55 0 0 0;
#X connect 56 0 55 1;
#X connect 57 0 5 0;
#X connect 58 0 57 1;
#X connect 59 0 11 0;
#X connect 60 0 59 1;
#X connect 61 0 18 0;
#X connect 62 0 61 1;
#X connect 63 0 24 0;
#X connect 64 0 63 1;
#X connect 65 0 29 0;
#X connect 66 0 65 1;
#X connect 67 0 35 0;
#X connect 68 0 67 1;
#X connect 69 0 42 0;
#X connect 70 0 69 1;
#X connect 71 0 1 0;
#X connect 72 0 6 0;
#X connect 73 0 12 0;
#X connect 74 0 19 0;
#X connect 75 0 25 0;
#X connect 76 0 30 0;
#X connect 77 0 36 0;
#X connect 78 0 43 0;
#X connect 79 0 2 3;
#X connect 80 0 7 3;
#X connect 81 0 13 3;
#X connect 82 0 20 3;
#X connect 83 0 26 3;
#X connect 84 0 31 3;
#X connect 85 0 37 3;
#X connect 86 0 2 1;
#X connect 87 0 2 2;
#X restore 41 237 pd toile_fond;
#N canvas 23 25 1360 831 sattelites 0;
#X msg 127 94 open fragments/magfrag1.wav;
#X obj 95 71 t b b;
#X obj 95 122 readsf~;
#X msg 95 94 1;
#X obj 95 204 spat4;
#X msg 288 181 1;
#X obj 159 152 loadbang;
#X obj 8 176 send~ frag1;
#X obj 95 15 loadbang;
#X obj 95 146 *~;
#X obj 158 127 line~;
#X obj 427 77 t b b;
#X obj 427 128 readsf~;
#X msg 427 100 1;
#X obj 427 210 spat4;
#X msg 620 187 1;
#X obj 491 158 loadbang;
#X obj 427 51 loadbang;
#X obj 427 152 *~;
#X obj 490 133 line~;
#X msg 459 100 open fragments/magfrag2.wav;
#X msg 223 181 0.2;
#X msg 555 187 -0.3;
#X obj 340 182 send~ frag2;
#X obj 759 82 t b b;
#X obj 759 133 readsf~;
#X msg 759 105 1;
#X obj 759 215 spat4;
#X msg 952 192 1;
#X obj 823 163 loadbang;
#X obj 759 56 loadbang;
#X msg 823 191 1;
#X obj 759 157 *~;
#X obj 822 138 line~;
#X obj 1097 87 t b b;
#X obj 1097 138 readsf~;
#X msg 1097 110 1;
#X obj 1097 220 spat4;
#X msg 1290 197 1;
#X obj 1161 168 loadbang;
#X obj 1097 61 loadbang;
#X msg 1161 196 1;
#X obj 1097 162 *~;
#X obj 1160 143 line~;
#X msg 791 105 open fragments/magfrag3.wav;
#X msg 1129 110 open fragments/magfrag4.wav;
#X obj 672 187 send~ frag3;
#X obj 1010 192 send~ frag4;
#X obj 100 490 t b b;
#X obj 100 541 readsf~;
#X msg 100 513 1;
#X obj 100 623 spat4;
#X msg 293 600 1;
#X obj 164 571 loadbang;
#X obj 100 464 loadbang;
#X obj 100 565 *~;
#X obj 163 546 line~;
#X obj 432 496 t b b;
#X obj 432 547 readsf~;
#X msg 432 519 1;
#X obj 432 629 spat4;
#X obj 496 577 loadbang;
#X obj 432 470 loadbang;
#X obj 432 571 *~;
#X obj 495 552 line~;
#X obj 764 501 t b b;
#X obj 764 552 readsf~;
#X msg 764 524 1;
#X obj 764 634 spat4;
#X msg 957 611 1;
#X obj 828 582 loadbang;
#X obj 764 475 loadbang;
#X msg 828 610 1;
#X obj 764 576 *~;
#X obj 827 557 line~;
#X obj 1102 506 t b b;
#X obj 1102 557 readsf~;
#X msg 1102 529 1;
#X obj 1102 639 spat4;
#X msg 1295 616 1;
#X obj 1166 587 loadbang;
#X obj 1102 480 loadbang;
#X msg 1166 615 1;
#X obj 1102 581 *~;
#X obj 1165 562 line~;
#X msg 1230 616 -0.7;
#X msg 496 605 1;
#X msg 164 599 1;
#X obj 13 595 send~ frag5;
#X obj 345 601 send~ frag6;
#X obj 677 606 send~ frag7;
#X obj 1015 611 send~ frag8;
#X msg 132 513 open fragments/magfrag5.wav;
#X msg 464 519 open fragments/magfrag6.wav;
#X msg 796 524 open fragments/magfrag7.wav;
#X msg 1134 529 open fragments/magfrag8.wav;
#X msg 887 192 0.4;
#X msg 1225 197 -0.35;
#X msg 892 611 0.6;
#X msg 560 606 0.25;
#X msg 625 606 0.8;
#X msg 228 600 -0.35;
#X msg 218 68 0 15000;
#X msg 548 73 0 15000;
#X msg 881 78 0 15000;
#X msg 1218 84 0 15000;
#X obj 218 45 r effondrement;
#X obj 548 50 r effondrement;
#X obj 881 54 r effondrement;
#X obj 1218 60 r effondrement;
#X msg 223 487 0 15000;
#X obj 223 464 r effondrement;
#X msg 541 492 0 15000;
#X obj 541 469 r effondrement;
#X msg 885 496 0 15000;
#X obj 885 473 r effondrement;
#X msg 1224 502 0 15000;
#X obj 1224 479 r effondrement;
#X floatatom 256 145 5 0 0 0 - - - 0;
#X msg 159 180 1;
#X msg 491 186 1;
#X msg 491 33 0.3 60000;
#X msg 1160 34 0.3 30000;
#X msg 822 30 0.2 45000;
#X msg 142 67 0.2 60000;
#X msg 163 439 0.3 30000;
#X msg 497 441 0.6 30000;
#X msg 827 452 0.4 15000;
#X msg 1164 452 0.4 10000;
#X obj 142 44 r sat1;
#X obj 822 7 r sat3;
#X obj 491 9 r sat2;
#X obj 1160 10 r sat4;
#X obj 1163 430 r sat8;
#X obj 826 428 r sat7;
#X obj 498 418 r sat6;
#X obj 163 416 r sat5;
#X connect 0 0 2 0;
#X connect 1 0 3 0;
#X connect 1 1 0 0;
#X connect 2 0 9 0;
#X connect 2 1 1 0;
#X connect 3 0 2 0;
#X connect 5 0 4 3;
#X connect 6 0 119 0;
#X connect 6 0 21 0;
#X connect 6 0 5 0;
#X connect 8 0 1 0;
#X connect 9 0 4 0;
#X connect 9 0 7 0;
#X connect 10 0 9 1;
#X connect 11 0 13 0;
#X connect 11 1 20 0;
#X connect 12 0 18 0;
#X connect 12 1 11 0;
#X connect 13 0 12 0;
#X connect 15 0 14 3;
#X connect 16 0 120 0;
#X connect 16 0 15 0;
#X connect 16 0 22 0;
#X connect 17 0 11 0;
#X connect 18 0 14 0;
#X connect 18 0 23 0;
#X connect 19 0 18 1;
#X connect 20 0 12 0;
#X connect 21 0 4 2;
#X connect 22 0 14 2;
#X connect 24 0 26 0;
#X connect 24 1 44 0;
#X connect 25 0 32 0;
#X connect 25 1 24 0;
#X connect 26 0 25 0;
#X connect 28 0 27 3;
#X connect 29 0 31 0;
#X connect 29 0 96 0;
#X connect 29 0 28 0;
#X connect 30 0 24 0;
#X connect 31 0 27 1;
#X connect 32 0 27 0;
#X connect 32 0 46 0;
#X connect 33 0 32 1;
#X connect 34 0 36 0;
#X connect 34 1 45 0;
#X connect 35 0 42 0;
#X connect 35 1 34 0;
#X connect 36 0 35 0;
#X connect 38 0 37 3;
#X connect 39 0 41 0;
#X connect 39 0 38 0;
#X connect 39 0 97 0;
#X connect 40 0 34 0;
#X connect 41 0 37 1;
#X connect 42 0 37 0;
#X connect 42 0 47 0;
#X connect 43 0 42 1;
#X connect 44 0 25 0;
#X connect 45 0 35 0;
#X connect 48 0 50 0;
#X connect 48 1 92 0;
#X connect 49 0 55 0;
#X connect 49 1 48 0;
#X connect 50 0 49 0;
#X connect 52 0 51 3;
#X connect 53 0 87 0;
#X connect 53 0 101 0;
#X connect 53 0 52 0;
#X connect 54 0 48 0;
#X connect 55 0 51 0;
#X connect 55 0 88 0;
#X connect 56 0 55 1;
#X connect 57 0 59 0;
#X connect 57 1 93 0;
#X connect 58 0 63 0;
#X connect 58 1 57 0;
#X connect 59 0 58 0;
#X connect 61 0 86 0;
#X connect 61 0 100 0;
#X connect 61 0 99 0;
#X connect 62 0 57 0;
#X connect 63 0 60 0;
#X connect 63 0 89 0;
#X connect 64 0 63 1;
#X connect 65 0 67 0;
#X connect 65 1 94 0;
#X connect 66 0 73 0;
#X connect 66 1 65 0;
#X connect 67 0 66 0;
#X connect 69 0 68 3;
#X connect 70 0 72 0;
#X connect 70 0 98 0;
#X connect 70 0 69 0;
#X connect 71 0 65 0;
#X connect 72 0 68 1;
#X connect 73 0 68 0;
#X connect 73 0 90 0;
#X connect 74 0 73 1;
#X connect 75 0 77 0;
#X connect 75 1 95 0;
#X connect 76 0 83 0;
#X connect 76 1 75 0;
#X connect 77 0 76 0;
#X connect 79 0 78 3;
#X connect 80 0 82 0;
#X connect 80 0 79 0;
#X connect 80 0 85 0;
#X connect 81 0 75 0;
#X connect 82 0 78 1;
#X connect 83 0 78 0;
#X connect 83 0 91 0;
#X connect 84 0 83 1;
#X connect 85 0 78 2;
#X connect 86 0 60 1;
#X connect 87 0 51 1;
#X connect 92 0 49 0;
#X connect 93 0 58 0;
#X connect 94 0 66 0;
#X connect 95 0 76 0;
#X connect 96 0 27 2;
#X connect 97 0 37 2;
#X connect 98 0 68 2;
#X connect 99 0 60 2;
#X connect 100 0 60 3;
#X connect 101 0 51 2;
#X connect 102 0 10 0;
#X connect 103 0 19 0;
#X connect 104 0 33 0;
#X connect 105 0 43 0;
#X connect 106 0 102 0;
#X connect 107 0 103 0;
#X connect 108 0 104 0;
#X connect 109 0 105 0;
#X connect 110 0 56 0;
#X connect 111 0 110 0;
#X connect 112 0 64 0;
#X connect 113 0 112 0;
#X connect 114 0 74 0;
#X connect 115 0 114 0;
#X connect 116 0 84 0;
#X connect 117 0 116 0;
#X connect 119 0 4 1;
#X connect 120 0 14 1;
#X connect 121 0 19 0;
#X connect 122 0 43 0;
#X connect 123 0 33 0;
#X connect 124 0 10 0;
#X connect 125 0 56 0;
#X connect 126 0 64 0;
#X connect 127 0 74 0;
#X connect 128 0 84 0;
#X connect 129 0 124 0;
#X connect 130 0 123 0;
#X connect 131 0 121 0;
#X connect 132 0 122 0;
#X connect 133 0 128 0;
#X connect 134 0 127 0;
#X connect 135 0 126 0;
#X connect 136 0 125 0;
#X restore 39 310 pd sattelites;
#X obj 295 336 send~ sphere_vol;
#X obj 295 312 line~;
#N canvas 63 88 876 708 starlink 0;
#X obj 95 71 t b b;
#X obj 95 122 readsf~;
#X msg 95 94 1;
#X obj 95 204 spat4;
#X msg 288 181 1;
#X obj 159 152 loadbang;
#X obj 95 45 loadbang;
#X obj 95 146 *~;
#X obj 158 127 line~;
#X msg 159 180 1;
#X msg 127 94 open fragments/starlink1.wav;
#X obj 8 176 send~ star1;
#X msg 223 181 0.7;
#X obj 476 78 t b b;
#X obj 476 129 readsf~;
#X msg 476 101 1;
#X obj 476 211 spat4;
#X msg 669 188 1;
#X obj 540 159 loadbang;
#X obj 476 52 loadbang;
#X obj 476 153 *~;
#X obj 539 134 line~;
#X msg 540 187 1;
#X obj 389 183 send~ star2;
#X msg 604 188 -0.6;
#X msg 508 101 open fragments/starlink2.wav;
#X obj 329 449 metro 2000;
#X obj 329 519 / 1000;
#X msg 328 544 \$1 1000;
#X obj 328 422 tgl 19 0 empty empty empty 0 -10 0 12 #fcfcfc #000000 #000000 0 1;
#X obj 329 473 random 2000;
#X obj 329 497 - 1000;
#X obj 328 567 line;
#X floatatom 328 591 5 0 0 0 - - - 0;
#X obj 335 398 loadbang;
#X obj 741 449 metro 2000;
#X obj 741 519 / 1000;
#X msg 740 544 \$1 1000;
#X obj 740 422 tgl 19 0 empty empty empty 0 -10 0 12 #fcfcfc #000000 #000000 0 1;
#X obj 741 473 random 2000;
#X obj 741 497 - 1000;
#X obj 740 567 line;
#X floatatom 740 591 5 0 0 0 - - - 0;
#X obj 747 398 loadbang;
#X obj 159 40 r musk;
#X msg 158 68 0.5 20000;
#X obj 541 49 r musk;
#X msg 539 75 0.5 20000;
#X msg 244 65 0 20000;
#X obj 243 42 r effondrement;
#X msg 620 72 0 20000;
#X obj 619 49 r effondrement;
#X connect 0 0 2 0;
#X connect 0 1 10 0;
#X connect 1 0 7 0;
#X connect 1 1 0 0;
#X connect 2 0 1 0;
#X connect 4 0 3 3;
#X connect 5 0 9 0;
#X connect 5 0 12 0;
#X connect 5 0 4 0;
#X connect 6 0 0 0;
#X connect 7 0 3 0;
#X connect 7 0 11 0;
#X connect 8 0 7 1;
#X connect 9 0 3 1;
#X connect 10 0 1 0;
#X connect 12 0 3 2;
#X connect 13 0 15 0;
#X connect 13 1 25 0;
#X connect 14 0 20 0;
#X connect 14 1 13 0;
#X connect 15 0 14 0;
#X connect 17 0 16 3;
#X connect 18 0 22 0;
#X connect 18 0 24 0;
#X connect 18 0 17 0;
#X connect 19 0 13 0;
#X connect 20 0 16 0;
#X connect 20 0 23 0;
#X connect 21 0 20 1;
#X connect 22 0 16 1;
#X connect 24 0 16 2;
#X connect 25 0 14 0;
#X connect 26 0 30 0;
#X connect 27 0 28 0;
#X connect 28 0 32 0;
#X connect 29 0 26 0;
#X connect 30 0 31 0;
#X connect 31 0 27 0;
#X connect 32 0 33 0;
#X connect 33 0 3 2;
#X connect 34 0 29 0;
#X connect 35 0 39 0;
#X connect 36 0 37 0;
#X connect 37 0 41 0;
#X connect 38 0 35 0;
#X connect 39 0 40 0;
#X connect 40 0 36 0;
#X connect 41 0 42 0;
#X connect 42 0 16 2;
#X connect 43 0 38 0;
#X connect 44 0 45 0;
#X connect 45 0 8 0;
#X connect 46 0 47 0;
#X connect 47 0 21 0;
#X connect 48 0 8 0;
#X connect 49 0 48 0;
#X connect 50 0 21 0;
#X connect 51 0 50 0;
#X restore 39 335 pd starlink;
#N canvas 133 87 772 574 effondrement 0;
#X obj 94 207 spat4;
#X obj 168 152 loadbang;
#X obj 95 147 *~;
#X obj 158 128 line~;
#X obj 285 56 r effondrement;
#X obj 83 67 noise~;
#X msg 297 181 0.2;
#X msg 232 181 0.04;
#X obj 398 57 r fin;
#X msg 399 80 0 7000;
#X msg 286 79 0.1 20000;
#X obj 174 53 r musk;
#X msg 175 76 0.1 40000;
#X obj 83 92 lop~ 4000;
#X msg 168 180 0.2;
#X connect 1 0 14 0;
#X connect 1 0 7 0;
#X connect 1 0 6 0;
#X connect 2 0 0 0;
#X connect 3 0 2 1;
#X connect 4 0 10 0;
#X connect 5 0 13 0;
#X connect 6 0 0 3;
#X connect 7 0 0 2;
#X connect 8 0 9 0;
#X connect 9 0 3 0;
#X connect 10 0 3 0;
#X connect 11 0 12 0;
#X connect 12 0 3 0;
#X connect 13 0 2 0;
#X connect 14 0 0 1;
#X restore 38 360 pd effondrement;
#X msg 338 312 0 30;
#X obj 295 261 r apparition;
#X msg 622 466 \; effondrement b \;;
#X msg 623 422 \; musk b \;;
#X obj 387 260 r musk;
#X msg 387 284 0 40000;
#X msg 295 287 0.2 2000;
#X msg 638 177 \; apparition b \;;
#X msg 626 243 \; sat1 b \;;
#X msg 626 280 \; sat2 b \;;
#X msg 626 317 \; sat3 b \;;
#X msg 626 354 \; sat4 b \;;
#X msg 706 244 \; sat5 b \;;
#X msg 706 281 \; sat6 b \;;
#X msg 706 318 \; sat7 b \;;
#X msg 706 355 \; sat8 b \;;
#X msg 626 586 \; fin b \;;
#X connect 1 0 0 0;
#X connect 4 0 5 0;
#X connect 5 0 3 1;
#X connect 6 0 7 0;
#X connect 7 0 3 0;
#X connect 8 0 3 2;
#X connect 9 0 8 0;
#X connect 18 0 17 0;
#X connect 21 0 18 0;
#X connect 22 0 27 0;
#X connect 25 0 26 0;
#X connect 26 0 18 0;
#X connect 27 0 18 0;
