#N canvas 1 25 825 674 12;
#X msg 26 49 \; pd dsp \$1 \;;
#X obj 26 26 tgl 19 0 empty empty start\ sound 0 -10 0 12 #c6ffc7 #000000 #000000 0 1;
#N canvas 353 378 450 278 (subpatch) 0;
#X array data_shape 100 float 1;
#A 0 0.578571 0.578571 0.578571 0.578571 0.578571 0.578571 0.578571 0.578571 0.578571 0.578571 0.821418 0.692852 0.667853 0.60357 0.575 0.164304 0.157161 0.150019 0.142876 0.135734 0.128591 0.114306 0.103592 0.0893072 0.0821646 0.060737 0.0535945 0.0500232 0.0428807 0.0428807 0.0571657 0.0785934 0.103592 0.139305 0.207159 0.307155 0.339296 0.35001 0.353581 0.364295 0.367866 0.37858 0.385723 0.389294 0.394651 0.400008 0.403579 0.414293 0.417864 0.421435 0.425007 0.40715 0.160733 0.128591 0.0964497 0.0821646 0.0857359 0.0928785 0.100021 0.117877 0.128591 0.135734 0.146448 0.160733 0.178589 0.196445 0.221444 0.257157 0.282156 0.353581 0.414293 0.453577 0.492861 0.532145 0.564286 0.607142 0.632141 0.653568 0.674996 0.692852 0.71428 0.735707 0.764278 0.785705 0.810704 0.832132 0.842846 0.864273 0.878558 0.907128 0.928556 0.93927 0.946412 0.953555 0.960698 0.974983 0.978554 0.989268 0.992839 0.989268;
#X coords 0 1 99 0 177 131 1 0 0;
#X restore 565 28 graph;
#N canvas 63 88 450 300 choice 0;
#X obj 94 157 inlet;
#X obj 94 179 spigot;
#X obj 159 158 inlet;
#X obj 159 182 spigot;
#X obj 203 114 - 1;
#X obj 203 136 tgl 15 0 empty empty empty 17 7 0 10 #fcfcfc #000000 #000000 0 1;
#X obj 203 157 change;
#X obj 301 53 inlet;
#X obj 91 235 outlet;
#X connect 0 0 1 0;
#X connect 1 0 8 0;
#X connect 2 0 3 0;
#X connect 3 0 8 0;
#X connect 4 0 5 0;
#X connect 5 0 6 0;
#X connect 6 0 3 1;
#X connect 7 0 4 0;
#X connect 7 0 1 1;
#X restore 253 148 pd choice;
#X obj 283 98 r bangdata;
#X obj 283 122 bng 19 250 50 0 empty empty empty 0 -10 0 12 #fcfcfc #000000 #000000;
#X obj 253 72 r bangsimulateur;
#X obj 253 96 bng 19 250 50 0 empty empty empty 0 -10 0 12 #fcfcfc #000000 #000000;
#X obj 382 129 tgl 19 0 empty empty choix_simulateur_data 0 -10 0 12 #c6ffc7 #000000 #000000 0 1;
#X obj 382 87 loadbang;
#N canvas 150 175 689 532 data_receive 0;
#X obj 264 132 oscformat;
#X obj 185 109 oscparse;
#X msg 185 62 listen 10300;
#X obj 185 87 netreceive -u -b 10300;
#X obj 274 200 bng 15 250 50 0 empty empty empty 17 7 0 10 #fcfcfc #000000 #000000;
#X obj 185 156 route data_clock data_bang;
#X obj 185 132 route list;
#X obj 274 179 sel 1;
#X obj 285 312 f;
#X obj 285 356 sel 0;
#X obj 265 377 bng 15 250 50 0 empty empty empty 17 7 0 10 #fcfcfc #000000 #000000;
#X obj 319 311 + 1;
#X obj 389 255 timer;
#X floatatom 389 277 5 0 0 0 - - - 0;
#X obj 389 215 tgl 15 0 empty empty empty 17 7 0 10 #fcfcfc #000000 #000000 0 1;
#X obj 389 233 sel 0 1;
#X obj 389 320 tgl 15 0 empty empty empty 17 7 0 10 #fcfcfc #000000 #000000 0 1;
#X obj 235 288 spigot;
#X obj 285 288 spigot;
#X obj 324 222 - 1;
#X obj 324 244 tgl 15 0 empty empty empty 17 7 0 10 #fcfcfc #000000 #000000 0 1;
#X obj 324 265 change;
#X obj 285 377 bng 15 250 50 0 empty empty empty 17 7 0 10 #fcfcfc #000000 #000000;
#X text 64 60 commande de unity -> un clock de 0 à 1 + des bangs (envoi de données), f 15;
#X obj 265 421 s bangdata;
#X obj 285 334 % 100;
#X text 389 128 quand le tps entre 2 données > 10ms il prend tout les bangs sinon filtre tous les 100 bangs, f 20;
#X obj 389 299 > 10;
#X connect 1 0 6 0;
#X connect 2 0 3 0;
#X connect 3 0 1 0;
#X connect 4 0 14 0;
#X connect 4 0 17 0;
#X connect 4 0 18 0;
#X connect 5 1 7 0;
#X connect 6 0 5 0;
#X connect 7 0 4 0;
#X connect 8 0 11 0;
#X connect 8 0 25 0;
#X connect 9 0 22 0;
#X connect 10 0 24 0;
#X connect 11 0 8 1;
#X connect 12 0 13 0;
#X connect 13 0 27 0;
#X connect 14 0 15 0;
#X connect 15 0 12 0;
#X connect 15 1 12 1;
#X connect 16 0 17 1;
#X connect 16 0 19 0;
#X connect 17 0 10 0;
#X connect 18 0 8 0;
#X connect 19 0 20 0;
#X connect 20 0 21 0;
#X connect 21 0 18 1;
#X connect 22 0 24 0;
#X connect 25 0 9 0;
#X connect 27 0 16 0;
#X restore 254 17 pd data_receive;
#N canvas 179 204 380 532 data_simul 0;
#X obj 120 159 snapshot~;
#X floatatom 119 184 6 0 0 0 - - - 0;
#X obj 127 110 tgl 19 0 empty empty empty 0 -10 0 12 #fcfcfc #000000 #000000 0 1;
#X obj 127 133 metro 10;
#X obj 121 59 *~ 100;
#X obj 87 447 metro;
#X floatatom 119 231 5 0 0 0 - - - 0;
#X obj 119 373 -;
#X obj 119 325 t b a;
#X floatatom 119 397 5 0 0 0 - - - 0;
#X obj 119 254 max 0;
#X floatatom 119 302 5 0 0 0 - - - 0;
#X obj 87 424 tgl 19 0 empty empty empty 0 -10 0 12 #fcfcfc #000000 #000000 0 1;
#X obj 121 35 phasor~ 0.02;
#X obj 119 207 * 500;
#X obj 119 278 min 500;
#X msg 119 349 500;
#X obj 119 420 + 10;
#X obj 121 83 tabread~ data_shape;
#X obj 55 398 loadbang;
#X obj 151 110 loadbang;
#X obj 87 471 s bangsimulateur;
#X connect 0 0 1 0;
#X connect 1 0 14 0;
#X connect 2 0 3 0;
#X connect 3 0 0 0;
#X connect 4 0 18 0;
#X connect 5 0 21 0;
#X connect 6 0 10 0;
#X connect 7 0 9 0;
#X connect 8 0 16 0;
#X connect 8 1 7 1;
#X connect 9 0 17 0;
#X connect 10 0 15 0;
#X connect 11 0 8 0;
#X connect 12 0 5 0;
#X connect 13 0 4 0;
#X connect 14 0 6 0;
#X connect 15 0 11 0;
#X connect 16 0 7 0;
#X connect 17 0 5 1;
#X connect 18 0 0 0;
#X connect 19 0 12 0;
#X connect 20 0 2 0;
#X restore 253 42 pd data_simul;
#X text 409 127 X = sim O = data;
#X text 463 29 dessiner la courbe du nombre de data (simulateur), f 12;
#N canvas 129 31 984 723 effacement 0;
#X obj 134 60 env~;
#X floatatom 134 84 5 0 0 0 - - - 0;
#X obj 134 107 clip 0 100;
#X floatatom 134 156 5 0 0 0 - - - 0;
#X obj 134 178 t b a;
#X msg 99 197 1;
#X obj 99 221 -;
#X floatatom 99 268 5 0 0 0 - - - 0;
#X obj 99 245 clip 0 1;
#X obj 134 36 receive~ frag1;
#X obj 309 63 env~;
#X floatatom 309 87 5 0 0 0 - - - 0;
#X obj 309 110 clip 0 100;
#X floatatom 309 159 5 0 0 0 - - - 0;
#X obj 309 181 t b a;
#X msg 274 200 1;
#X obj 274 224 -;
#X floatatom 274 271 5 0 0 0 - - - 0;
#X obj 274 248 clip 0 1;
#X obj 309 39 receive~ frag2;
#X obj 491 64 env~;
#X floatatom 491 88 5 0 0 0 - - - 0;
#X obj 491 111 clip 0 100;
#X floatatom 491 160 5 0 0 0 - - - 0;
#X obj 491 182 t b a;
#X msg 456 201 1;
#X obj 456 225 -;
#X floatatom 456 272 5 0 0 0 - - - 0;
#X obj 456 249 clip 0 1;
#X obj 666 67 env~;
#X floatatom 666 91 5 0 0 0 - - - 0;
#X obj 666 114 clip 0 100;
#X floatatom 666 163 5 0 0 0 - - - 0;
#X obj 666 185 t b a;
#X msg 631 204 1;
#X obj 631 228 -;
#X floatatom 631 275 5 0 0 0 - - - 0;
#X obj 631 252 clip 0 1;
#X obj 120 399 env~;
#X floatatom 120 423 5 0 0 0 - - - 0;
#X obj 120 446 clip 0 100;
#X floatatom 120 495 5 0 0 0 - - - 0;
#X obj 120 517 t b a;
#X msg 85 536 1;
#X obj 85 560 -;
#X floatatom 85 607 5 0 0 0 - - - 0;
#X obj 85 584 clip 0 1;
#X msg 85 629 \$1 200;
#X obj 295 402 env~;
#X floatatom 295 426 5 0 0 0 - - - 0;
#X obj 295 449 clip 0 100;
#X floatatom 295 498 5 0 0 0 - - - 0;
#X obj 295 520 t b a;
#X msg 260 539 1;
#X obj 260 563 -;
#X floatatom 260 610 5 0 0 0 - - - 0;
#X obj 260 587 clip 0 1;
#X msg 260 632 \$1 200;
#X obj 477 403 env~;
#X floatatom 477 427 5 0 0 0 - - - 0;
#X obj 477 450 clip 0 100;
#X floatatom 477 499 5 0 0 0 - - - 0;
#X obj 477 521 t b a;
#X msg 442 540 1;
#X obj 442 564 -;
#X floatatom 442 611 5 0 0 0 - - - 0;
#X obj 442 588 clip 0 1;
#X msg 442 633 \$1 200;
#X obj 652 406 env~;
#X floatatom 652 430 5 0 0 0 - - - 0;
#X obj 652 453 clip 0 100;
#X floatatom 652 502 5 0 0 0 - - - 0;
#X obj 652 524 t b a;
#X msg 617 543 1;
#X obj 617 567 -;
#X floatatom 617 614 5 0 0 0 - - - 0;
#X obj 617 591 clip 0 1;
#X msg 617 636 \$1 200;
#X obj 491 40 receive~ frag3;
#X obj 666 43 receive~ frag4;
#X obj 120 375 receive~ frag5;
#X obj 295 378 receive~ frag6;
#X obj 477 379 receive~ frag7;
#X obj 652 382 receive~ frag8;
#X obj 134 131 / 50;
#X obj 309 134 / 50;
#X obj 491 135 / 50;
#X obj 666 138 / 50;
#X obj 120 470 / 50;
#X obj 295 473 / 50;
#X obj 477 474 / 50;
#X obj 652 477 / 50;
#X obj 99 314 s effacement1;
#X obj 274 317 s effacement2;
#X obj 456 318 s effacement3;
#X obj 631 321 s effacement4;
#X obj 85 653 s effacement5;
#X obj 260 656 s effacement6;
#X obj 442 657 s effacement7;
#X obj 617 660 s effacement8;
#X msg 99 290 \$1 500;
#X msg 274 293 \$1 500;
#X msg 456 294 \$1 500;
#X msg 631 297 \$1 500;
#X obj 855 69 env~;
#X floatatom 855 93 5 0 0 0 - - - 0;
#X obj 855 116 clip 0 100;
#X floatatom 855 165 5 0 0 0 - - - 0;
#X obj 855 187 t b a;
#X msg 820 206 1;
#X obj 820 230 -;
#X floatatom 820 277 5 0 0 0 - - - 0;
#X obj 820 254 clip 0 1;
#X obj 855 45 receive~ star1;
#X obj 852 411 env~;
#X floatatom 852 435 5 0 0 0 - - - 0;
#X obj 852 458 clip 0 100;
#X floatatom 852 507 5 0 0 0 - - - 0;
#X obj 852 529 t b a;
#X msg 817 548 1;
#X obj 817 572 -;
#X floatatom 817 619 5 0 0 0 - - - 0;
#X obj 817 596 clip 0 1;
#X obj 852 387 receive~ star2;
#X obj 820 323 s effacement_S1;
#X obj 817 665 s effacement_S2;
#X msg 820 299 \$1 60;
#X msg 817 641 \$1 60;
#X obj 855 140 / 90;
#X obj 852 482 / 90;
#X connect 0 0 1 0;
#X connect 1 0 2 0;
#X connect 2 0 84 0;
#X connect 3 0 4 0;
#X connect 4 0 5 0;
#X connect 4 1 6 1;
#X connect 5 0 6 0;
#X connect 6 0 8 0;
#X connect 7 0 100 0;
#X connect 8 0 7 0;
#X connect 9 0 0 0;
#X connect 10 0 11 0;
#X connect 11 0 12 0;
#X connect 12 0 85 0;
#X connect 13 0 14 0;
#X connect 14 0 15 0;
#X connect 14 1 16 1;
#X connect 15 0 16 0;
#X connect 16 0 18 0;
#X connect 17 0 101 0;
#X connect 18 0 17 0;
#X connect 19 0 10 0;
#X connect 20 0 21 0;
#X connect 21 0 22 0;
#X connect 22 0 86 0;
#X connect 23 0 24 0;
#X connect 24 0 25 0;
#X connect 24 1 26 1;
#X connect 25 0 26 0;
#X connect 26 0 28 0;
#X connect 27 0 102 0;
#X connect 28 0 27 0;
#X connect 29 0 30 0;
#X connect 30 0 31 0;
#X connect 31 0 87 0;
#X connect 32 0 33 0;
#X connect 33 0 34 0;
#X connect 33 1 35 1;
#X connect 34 0 35 0;
#X connect 35 0 37 0;
#X connect 36 0 103 0;
#X connect 37 0 36 0;
#X connect 38 0 39 0;
#X connect 39 0 40 0;
#X connect 40 0 88 0;
#X connect 41 0 42 0;
#X connect 42 0 43 0;
#X connect 42 1 44 1;
#X connect 43 0 44 0;
#X connect 44 0 46 0;
#X connect 45 0 47 0;
#X connect 46 0 45 0;
#X connect 47 0 96 0;
#X connect 48 0 49 0;
#X connect 49 0 50 0;
#X connect 50 0 89 0;
#X connect 51 0 52 0;
#X connect 52 0 53 0;
#X connect 52 1 54 1;
#X connect 53 0 54 0;
#X connect 54 0 56 0;
#X connect 55 0 57 0;
#X connect 56 0 55 0;
#X connect 57 0 97 0;
#X connect 58 0 59 0;
#X connect 59 0 60 0;
#X connect 60 0 90 0;
#X connect 61 0 62 0;
#X connect 62 0 63 0;
#X connect 62 1 64 1;
#X connect 63 0 64 0;
#X connect 64 0 66 0;
#X connect 65 0 67 0;
#X connect 66 0 65 0;
#X connect 67 0 98 0;
#X connect 68 0 69 0;
#X connect 69 0 70 0;
#X connect 70 0 91 0;
#X connect 71 0 72 0;
#X connect 72 0 73 0;
#X connect 72 1 74 1;
#X connect 73 0 74 0;
#X connect 74 0 76 0;
#X connect 75 0 77 0;
#X connect 76 0 75 0;
#X connect 77 0 99 0;
#X connect 78 0 20 0;
#X connect 79 0 29 0;
#X connect 80 0 38 0;
#X connect 81 0 48 0;
#X connect 82 0 58 0;
#X connect 83 0 68 0;
#X connect 84 0 3 0;
#X connect 85 0 13 0;
#X connect 86 0 23 0;
#X connect 87 0 32 0;
#X connect 88 0 41 0;
#X connect 89 0 51 0;
#X connect 90 0 61 0;
#X connect 91 0 71 0;
#X connect 100 0 92 0;
#X connect 101 0 93 0;
#X connect 102 0 94 0;
#X connect 103 0 95 0;
#X connect 104 0 105 0;
#X connect 105 0 106 0;
#X connect 106 0 128 0;
#X connect 107 0 108 0;
#X connect 108 0 109 0;
#X connect 108 1 110 1;
#X connect 109 0 110 0;
#X connect 110 0 112 0;
#X connect 111 0 126 0;
#X connect 112 0 111 0;
#X connect 113 0 104 0;
#X connect 114 0 115 0;
#X connect 115 0 116 0;
#X connect 116 0 129 0;
#X connect 117 0 118 0;
#X connect 118 0 119 0;
#X connect 118 1 120 1;
#X connect 119 0 120 0;
#X connect 120 0 122 0;
#X connect 121 0 127 0;
#X connect 122 0 121 0;
#X connect 123 0 114 0;
#X connect 126 0 124 0;
#X connect 127 0 125 0;
#X connect 128 0 107 0;
#X connect 129 0 117 0;
#X restore 41 262 pd effacement;
#N canvas 0 25 1364 847 toile_fond 0;
#X obj 43 159 *~;
#X obj 61 137 line~;
#X obj 43 189 spat4;
#X obj 107 137 loadbang;
#N canvas 63 88 811 350 harmoniques 0;
#X obj 52 15 loadbang;
#X obj 52 135 *~ 1;
#X obj 118 111 osc~ 100;
#X obj 52 224 outlet~;
#X obj 183 111 osc~ 100;
#X obj 248 110 osc~ 100;
#X obj 313 110 osc~ 100;
#X obj 379 110 osc~ 100;
#X obj 444 110 osc~ 100;
#X obj 509 109 osc~ 100;
#X obj 248 87 * 5;
#X obj 313 87 * 8;
#X obj 379 87 * 20;
#X obj 509 86 * 112;
#X obj 509 133 *~ 0.01;
#X obj 444 87 * 64;
#X obj 379 134 *~ 0.1;
#X obj 444 134 *~ 0.02;
#X obj 248 134 *~ 0.5;
#X obj 313 134 *~ 0.7;
#X obj 118 135 *~ 1;
#X obj 183 135 *~ 1;
#X obj 183 88 * 2;
#X msg 52 38 80;
#X obj 118 88 * 1.2;
#X obj 52 111 osc~ 800;
#X connect 0 0 23 0;
#X connect 1 0 3 0;
#X connect 2 0 20 0;
#X connect 4 0 21 0;
#X connect 5 0 18 0;
#X connect 6 0 19 0;
#X connect 7 0 16 0;
#X connect 8 0 17 0;
#X connect 9 0 14 0;
#X connect 10 0 5 0;
#X connect 11 0 6 0;
#X connect 12 0 7 0;
#X connect 13 0 9 0;
#X connect 15 0 8 0;
#X connect 22 0 4 0;
#X connect 23 0 10 0;
#X connect 23 0 11 0;
#X connect 23 0 12 0;
#X connect 23 0 15 0;
#X connect 23 0 13 0;
#X connect 23 0 22 0;
#X connect 23 0 24 0;
#X connect 23 0 25 0;
#X connect 24 0 2 0;
#X connect 25 0 1 0;
#X restore 43 5 pd harmoniques;
#X obj 296 159 *~;
#X obj 314 137 line~;
#X obj 296 189 spat4;
#X obj 360 137 loadbang;
#N canvas 63 88 811 350 harmoniques 0;
#X obj 52 111 osc~ 100;
#X obj 52 15 loadbang;
#X obj 52 135 *~ 1;
#X obj 118 111 osc~ 100;
#X obj 118 88 * 2;
#X obj 52 224 outlet~;
#X obj 183 111 osc~ 100;
#X obj 248 110 osc~ 100;
#X obj 313 110 osc~ 100;
#X obj 118 135 *~ 0.9;
#X obj 379 110 osc~ 100;
#X obj 444 110 osc~ 100;
#X obj 509 109 osc~ 100;
#X obj 509 133 *~ 0.01;
#X msg 52 38 150;
#X obj 183 88 * 5;
#X obj 248 87 * 14;
#X obj 313 87 * 16;
#X obj 379 87 * 24;
#X obj 509 86 * 96;
#X obj 444 87 * 80;
#X obj 248 134 *~ 0.2;
#X obj 444 134 *~ 0.05;
#X obj 379 134 *~ 0.07;
#X obj 313 134 *~ 0.1;
#X obj 183 135 *~ 0.2;
#X connect 0 0 2 0;
#X connect 1 0 14 0;
#X connect 2 0 5 0;
#X connect 3 0 9 0;
#X connect 4 0 3 0;
#X connect 6 0 25 0;
#X connect 7 0 21 0;
#X connect 8 0 24 0;
#X connect 9 0 5 0;
#X connect 10 0 23 0;
#X connect 11 0 22 0;
#X connect 12 0 13 0;
#X connect 14 0 0 0;
#X connect 14 0 4 0;
#X connect 14 0 15 0;
#X connect 14 0 16 0;
#X connect 14 0 17 0;
#X connect 14 0 18 0;
#X connect 14 0 19 0;
#X connect 14 0 20 0;
#X connect 15 0 6 0;
#X connect 16 0 7 0;
#X connect 17 0 8 0;
#X connect 18 0 10 0;
#X connect 19 0 12 0;
#X connect 20 0 11 0;
#X connect 21 0 5 0;
#X connect 22 0 5 0;
#X connect 23 0 5 0;
#X connect 24 0 5 0;
#X connect 25 0 5 0;
#X restore 296 10 pd harmoniques;
#X msg 360 165 0.15;
#X obj 552 158 *~;
#X obj 570 136 line~;
#X obj 552 188 spat4;
#X obj 616 136 loadbang;
#N canvas 63 88 811 350 harmoniques 0;
#X obj 52 111 osc~ 100;
#X obj 52 15 loadbang;
#X obj 52 135 *~ 1;
#X obj 118 111 osc~ 100;
#X obj 118 88 * 2;
#X obj 52 224 outlet~;
#X obj 183 111 osc~ 100;
#X obj 248 110 osc~ 100;
#X obj 313 110 osc~ 100;
#X obj 118 135 *~ 0.9;
#X obj 379 110 osc~ 100;
#X obj 444 110 osc~ 100;
#X obj 509 109 osc~ 100;
#X obj 509 133 *~ 0.01;
#X msg 52 38 133;
#X obj 183 88 * 8;
#X obj 248 87 * 9;
#X obj 313 87 * 22;
#X obj 509 86 * 88;
#X obj 379 87 * 48;
#X obj 444 87 * 64;
#X obj 313 134 *~ 0.1;
#X obj 379 134 *~ 0.05;
#X obj 444 134 *~ 0.02;
#X obj 183 135 *~ 0.2;
#X obj 248 134 *~ 0.1;
#X connect 0 0 2 0;
#X connect 1 0 14 0;
#X connect 2 0 5 0;
#X connect 3 0 9 0;
#X connect 4 0 3 0;
#X connect 6 0 24 0;
#X connect 7 0 25 0;
#X connect 8 0 21 0;
#X connect 9 0 5 0;
#X connect 10 0 22 0;
#X connect 11 0 23 0;
#X connect 12 0 13 0;
#X connect 13 0 5 0;
#X connect 14 0 0 0;
#X connect 14 0 4 0;
#X connect 14 0 15 0;
#X connect 14 0 16 0;
#X connect 14 0 17 0;
#X connect 14 0 18 0;
#X connect 14 0 19 0;
#X connect 14 0 20 0;
#X connect 15 0 6 0;
#X connect 16 0 7 0;
#X connect 17 0 8 0;
#X connect 18 0 12 0;
#X connect 19 0 10 0;
#X connect 20 0 11 0;
#X connect 21 0 5 0;
#X connect 22 0 5 0;
#X connect 23 0 5 0;
#X connect 24 0 5 0;
#X connect 25 0 5 0;
#X restore 552 9 pd harmoniques;
#X msg 616 164 0.15;
#X msg 424 166 0.02;
#X obj 797 163 *~;
#X obj 815 141 line~;
#X obj 797 193 spat4;
#X obj 861 141 loadbang;
#N canvas 63 88 811 350 harmoniques 0;
#X obj 52 111 osc~ 100;
#X obj 52 15 loadbang;
#X obj 52 135 *~ 1;
#X obj 118 111 osc~ 100;
#X obj 118 88 * 2;
#X obj 52 224 outlet~;
#X obj 183 111 osc~ 100;
#X obj 248 110 osc~ 100;
#X obj 313 110 osc~ 100;
#X obj 118 135 *~ 0.9;
#X obj 183 135 *~ 0.8;
#X obj 248 134 *~ 0.5;
#X obj 379 110 osc~ 100;
#X obj 444 110 osc~ 100;
#X obj 509 109 osc~ 100;
#X obj 509 133 *~ 0.01;
#X obj 313 134 *~ 0.1;
#X obj 379 134 *~ 0.05;
#X obj 444 134 *~ 0.02;
#X msg 52 38 125;
#X obj 183 88 * 6;
#X obj 248 87 * 14;
#X obj 313 87 * 16;
#X obj 379 87 * 22;
#X obj 444 87 * 24;
#X obj 509 86 * 72;
#X connect 0 0 2 0;
#X connect 1 0 19 0;
#X connect 2 0 5 0;
#X connect 3 0 9 0;
#X connect 4 0 3 0;
#X connect 6 0 10 0;
#X connect 7 0 11 0;
#X connect 8 0 16 0;
#X connect 9 0 5 0;
#X connect 10 0 5 0;
#X connect 11 0 5 0;
#X connect 12 0 17 0;
#X connect 13 0 18 0;
#X connect 14 0 15 0;
#X connect 15 0 5 0;
#X connect 16 0 5 0;
#X connect 17 0 5 0;
#X connect 18 0 5 0;
#X connect 19 0 0 0;
#X connect 19 0 4 0;
#X connect 19 0 20 0;
#X connect 19 0 21 0;
#X connect 19 0 22 0;
#X connect 19 0 23 0;
#X connect 19 0 24 0;
#X connect 19 0 25 0;
#X connect 20 0 6 0;
#X connect 21 0 7 0;
#X connect 22 0 8 0;
#X connect 23 0 12 0;
#X connect 24 0 13 0;
#X connect 25 0 14 0;
#X restore 797 10 pd harmoniques;
#X msg 861 169 0.15;
#X obj 43 591 *~;
#X obj 61 569 line~;
#X obj 43 621 spat4;
#X obj 107 569 loadbang;
#N canvas 63 88 811 350 harmoniques 0;
#X obj 52 111 osc~ 100;
#X obj 52 15 loadbang;
#X obj 52 135 *~ 1;
#X obj 118 111 osc~ 100;
#X obj 52 224 outlet~;
#X obj 183 111 osc~ 100;
#X obj 248 110 osc~ 100;
#X obj 313 110 osc~ 100;
#X obj 183 135 *~ 0.8;
#X obj 379 110 osc~ 100;
#X obj 444 110 osc~ 100;
#X obj 509 109 osc~ 100;
#X obj 509 133 *~ 0.01;
#X obj 444 134 *~ 0.02;
#X msg 52 38 200;
#X obj 118 88 * 3;
#X obj 248 87 * 7;
#X obj 313 87 * 9;
#X obj 379 87 * 11;
#X obj 444 87 * 48;
#X obj 509 86 * 72;
#X obj 183 88 * 4;
#X obj 248 134 *~ 0.2;
#X obj 313 134 *~ 0.2;
#X obj 379 134 *~ 0.05;
#X obj 118 135 *~ 0.7;
#X connect 0 0 2 0;
#X connect 1 0 14 0;
#X connect 2 0 4 0;
#X connect 3 0 25 0;
#X connect 5 0 8 0;
#X connect 6 0 22 0;
#X connect 7 0 23 0;
#X connect 8 0 4 0;
#X connect 9 0 24 0;
#X connect 10 0 13 0;
#X connect 11 0 12 0;
#X connect 12 0 4 0;
#X connect 13 0 4 0;
#X connect 14 0 0 0;
#X connect 14 0 15 0;
#X connect 14 0 16 0;
#X connect 14 0 17 0;
#X connect 14 0 18 0;
#X connect 14 0 19 0;
#X connect 14 0 20 0;
#X connect 14 0 21 0;
#X connect 15 0 3 0;
#X connect 16 0 6 0;
#X connect 17 0 7 0;
#X connect 18 0 9 0;
#X connect 19 0 10 0;
#X connect 20 0 11 0;
#X connect 21 0 5 0;
#X connect 22 0 4 0;
#X connect 23 0 4 0;
#X connect 24 0 4 0;
#X connect 25 0 4 0;
#X restore 43 441 pd harmoniques;
#X obj 296 591 *~;
#X obj 314 569 line~;
#X obj 296 621 spat4;
#X obj 360 569 loadbang;
#N canvas 63 88 811 350 harmoniques 0;
#X obj 52 111 osc~ 100;
#X obj 52 15 loadbang;
#X obj 52 135 *~ 1;
#X obj 118 111 osc~ 100;
#X obj 52 224 outlet~;
#X obj 183 111 osc~ 100;
#X obj 248 110 osc~ 100;
#X obj 313 110 osc~ 100;
#X obj 379 110 osc~ 100;
#X obj 444 110 osc~ 100;
#X obj 509 109 osc~ 100;
#X obj 509 133 *~ 0.01;
#X obj 183 88 * 5;
#X obj 444 134 *~ 0.05;
#X msg 52 38 300;
#X obj 118 88 * 4;
#X obj 248 87 * 7;
#X obj 313 87 * 6;
#X obj 379 87 * 10;
#X obj 444 87 * 13;
#X obj 509 86 * 44;
#X obj 118 135 *~ 0.6;
#X obj 183 135 *~ 0.2;
#X obj 248 134 *~ 0.1;
#X obj 313 134 *~ 0.07;
#X obj 379 134 *~ 0.05;
#X connect 0 0 2 0;
#X connect 1 0 14 0;
#X connect 2 0 4 0;
#X connect 3 0 21 0;
#X connect 5 0 22 0;
#X connect 6 0 23 0;
#X connect 7 0 24 0;
#X connect 8 0 25 0;
#X connect 9 0 13 0;
#X connect 10 0 11 0;
#X connect 11 0 4 0;
#X connect 12 0 5 0;
#X connect 13 0 4 0;
#X connect 14 0 0 0;
#X connect 14 0 12 0;
#X connect 14 0 15 0;
#X connect 14 0 16 0;
#X connect 14 0 17 0;
#X connect 14 0 18 0;
#X connect 14 0 19 0;
#X connect 14 0 20 0;
#X connect 15 0 3 0;
#X connect 16 0 6 0;
#X connect 17 0 7 0;
#X connect 18 0 8 0;
#X connect 19 0 9 0;
#X connect 20 0 10 0;
#X connect 21 0 4 0;
#X connect 22 0 4 0;
#X connect 23 0 4 0;
#X connect 24 0 4 0;
#X connect 25 0 4 0;
#X restore 296 441 pd harmoniques;
#X msg 360 597 0.15;
#X obj 552 590 *~;
#X obj 570 568 line~;
#X obj 552 620 spat4;
#X obj 616 568 loadbang;
#N canvas 63 88 811 350 harmoniques 0;
#X obj 52 111 osc~ 100;
#X obj 52 15 loadbang;
#X obj 52 135 *~ 1;
#X obj 118 111 osc~ 100;
#X obj 118 88 * 2;
#X obj 52 224 outlet~;
#X obj 183 111 osc~ 100;
#X obj 248 110 osc~ 100;
#X obj 313 110 osc~ 100;
#X obj 118 135 *~ 0.9;
#X obj 183 135 *~ 0.8;
#X obj 248 134 *~ 0.5;
#X obj 379 110 osc~ 100;
#X obj 444 110 osc~ 100;
#X obj 509 109 osc~ 100;
#X obj 509 133 *~ 0.01;
#X obj 313 134 *~ 0.1;
#X obj 379 134 *~ 0.05;
#X obj 444 134 *~ 0.02;
#X msg 52 38 166;
#X obj 183 88 * 4;
#X obj 248 87 * 6;
#X obj 313 87 * 7;
#X obj 379 87 * 20;
#X obj 509 86 * 72;
#X obj 444 87 * 64;
#X connect 0 0 2 0;
#X connect 1 0 19 0;
#X connect 2 0 5 0;
#X connect 3 0 9 0;
#X connect 4 0 3 0;
#X connect 6 0 10 0;
#X connect 7 0 11 0;
#X connect 8 0 16 0;
#X connect 9 0 5 0;
#X connect 10 0 5 0;
#X connect 11 0 5 0;
#X connect 12 0 17 0;
#X connect 13 0 18 0;
#X connect 14 0 15 0;
#X connect 15 0 5 0;
#X connect 16 0 5 0;
#X connect 17 0 5 0;
#X connect 18 0 5 0;
#X connect 19 0 0 0;
#X connect 19 0 4 0;
#X connect 19 0 20 0;
#X connect 19 0 21 0;
#X connect 19 0 22 0;
#X connect 19 0 23 0;
#X connect 19 0 24 0;
#X connect 19 0 25 0;
#X connect 20 0 6 0;
#X connect 21 0 7 0;
#X connect 22 0 8 0;
#X connect 23 0 12 0;
#X connect 24 0 14 0;
#X connect 25 0 13 0;
#X restore 552 435 pd harmoniques;
#X msg 616 596 0.15;
#X msg 680 597 0.03;
#X obj 797 595 *~;
#X obj 815 573 line~;
#X obj 797 625 spat4;
#X obj 861 573 loadbang;
#N canvas 63 88 811 350 harmoniques 0;
#X obj 52 111 osc~ 100;
#X obj 52 15 loadbang;
#X obj 118 111 osc~ 100;
#X obj 118 88 * 2;
#X obj 52 224 outlet~;
#X obj 183 111 osc~ 100;
#X obj 248 110 osc~ 100;
#X obj 313 110 osc~ 100;
#X obj 379 110 osc~ 100;
#X obj 444 110 osc~ 100;
#X obj 509 109 osc~ 100;
#X obj 509 133 *~ 0.01;
#X obj 313 134 *~ 0.1;
#X obj 379 134 *~ 0.05;
#X obj 444 134 *~ 0.02;
#X msg 52 38 250;
#X obj 183 88 * 4;
#X obj 248 87 * 8;
#X obj 313 87 * 12;
#X obj 444 87 * 20;
#X obj 379 87 * 14;
#X obj 509 86 * 22;
#X obj 248 134 *~ 0.2;
#X obj 52 135 *~ 0.8;
#X obj 118 135 *~ 0.3;
#X obj 183 135 *~ 0.2;
#X connect 0 0 23 0;
#X connect 1 0 15 0;
#X connect 2 0 24 0;
#X connect 3 0 2 0;
#X connect 5 0 25 0;
#X connect 6 0 22 0;
#X connect 7 0 12 0;
#X connect 8 0 13 0;
#X connect 9 0 14 0;
#X connect 10 0 11 0;
#X connect 11 0 4 0;
#X connect 12 0 4 0;
#X connect 13 0 4 0;
#X connect 14 0 4 0;
#X connect 15 0 0 0;
#X connect 15 0 3 0;
#X connect 15 0 16 0;
#X connect 15 0 17 0;
#X connect 15 0 18 0;
#X connect 15 0 19 0;
#X connect 15 0 20 0;
#X connect 15 0 21 0;
#X connect 16 0 5 0;
#X connect 17 0 6 0;
#X connect 18 0 7 0;
#X connect 19 0 9 0;
#X connect 20 0 8 0;
#X connect 21 0 10 0;
#X connect 22 0 4 0;
#X connect 23 0 4 0;
#X connect 24 0 4 0;
#X connect 25 0 4 0;
#X restore 797 440 pd harmoniques;
#X msg 861 601 0.15;
#X msg 107 597 0.15;
#X msg 680 165 -0.03;
#X msg 925 170 0.035;
#X msg 171 598 0.023;
#X msg 424 598 -0.027;
#X msg 925 602 -0.037;
#X msg 990 602 0.7;
#X obj 43 45 *~;
#X obj 73 29 receive~ sphere_vol;
#X obj 296 38 *~;
#X obj 326 38 receive~ sphere_vol;
#X obj 552 36 *~;
#X obj 582 36 receive~ sphere_vol;
#X obj 797 35 *~;
#X obj 827 35 receive~ sphere_vol;
#X obj 43 465 *~;
#X obj 73 465 receive~ sphere_vol;
#X obj 296 466 *~;
#X obj 326 466 receive~ sphere_vol;
#X obj 552 459 *~;
#X obj 582 459 receive~ sphere_vol;
#X obj 797 464 *~;
#X obj 827 464 receive~ sphere_vol;
#X obj 61 113 r effacement1;
#X obj 314 113 r effacement2;
#X obj 570 112 r effacement3;
#X obj 815 117 r effacement4;
#X obj 61 545 r effacement5;
#X obj 314 545 r effacement6;
#X obj 570 544 r effacement7;
#X obj 815 549 r effacement8;
#X msg 107 165 0.2;
#X obj 161 113 r effacement_S1;
#X obj 412 113 r effacement_S1;
#X obj 669 112 r effacement_S1;
#X obj 859 65 r effacement_S1;
#X obj 797 87 *~;
#X obj 815 65 line~;
#X obj 614 63 r effacement_S1;
#X obj 552 85 *~;
#X obj 570 63 line~;
#X obj 358 65 r effacement_S1;
#X obj 296 87 *~;
#X obj 314 65 line~;
#X obj 105 67 r effacement_S1;
#X obj 43 89 *~;
#X obj 61 67 line~;
#X obj 859 498 r effacement_S1;
#X obj 797 520 *~;
#X obj 815 498 line~;
#X obj 614 496 r effacement_S1;
#X obj 552 518 *~;
#X obj 570 496 line~;
#X obj 358 496 r effacement_S1;
#X obj 296 518 *~;
#X obj 314 496 line~;
#X obj 105 498 r effacement_S1;
#X obj 43 520 *~;
#X obj 61 498 line~;
#X msg 236 166 1;
#X msg 489 166 1;
#X msg 745 165 1;
#X msg 986 165 1;
#X msg 236 598 1;
#X msg 489 598 1;
#X msg 745 597 1;
#X msg 171 166 -0.1;
#X connect 0 0 2 0;
#X connect 1 0 0 1;
#X connect 3 0 79 0;
#X connect 3 0 114 0;
#X connect 3 0 107 0;
#X connect 4 0 55 0;
#X connect 5 0 7 0;
#X connect 6 0 5 1;
#X connect 8 0 10 0;
#X connect 8 0 17 0;
#X connect 8 0 108 0;
#X connect 9 0 57 0;
#X connect 10 0 7 1;
#X connect 11 0 13 0;
#X connect 12 0 11 1;
#X connect 14 0 16 0;
#X connect 14 0 49 0;
#X connect 14 0 109 0;
#X connect 15 0 59 0;
#X connect 16 0 13 1;
#X connect 17 0 7 2;
#X connect 18 0 20 0;
#X connect 19 0 18 1;
#X connect 21 0 23 0;
#X connect 21 0 50 0;
#X connect 21 0 110 0;
#X connect 22 0 61 0;
#X connect 23 0 20 1;
#X connect 24 0 26 0;
#X connect 25 0 24 1;
#X connect 27 0 48 0;
#X connect 27 0 51 0;
#X connect 27 0 111 0;
#X connect 28 0 63 0;
#X connect 29 0 31 0;
#X connect 30 0 29 1;
#X connect 32 0 34 0;
#X connect 32 0 52 0;
#X connect 32 0 112 0;
#X connect 33 0 65 0;
#X connect 34 0 31 1;
#X connect 35 0 37 0;
#X connect 36 0 35 1;
#X connect 38 0 40 0;
#X connect 38 0 41 0;
#X connect 38 0 113 0;
#X connect 39 0 67 0;
#X connect 40 0 37 1;
#X connect 41 0 37 2;
#X connect 42 0 44 0;
#X connect 43 0 42 1;
#X connect 45 0 47 0;
#X connect 45 0 53 0;
#X connect 45 0 54 0;
#X connect 46 0 69 0;
#X connect 47 0 44 1;
#X connect 48 0 26 1;
#X connect 49 0 13 2;
#X connect 50 0 20 2;
#X connect 51 0 26 2;
#X connect 52 0 31 2;
#X connect 53 0 44 2;
#X connect 54 0 44 3;
#X connect 55 0 93 0;
#X connect 56 0 55 1;
#X connect 57 0 90 0;
#X connect 58 0 57 1;
#X connect 59 0 87 0;
#X connect 60 0 59 1;
#X connect 61 0 84 0;
#X connect 62 0 61 1;
#X connect 63 0 105 0;
#X connect 64 0 63 1;
#X connect 65 0 102 0;
#X connect 66 0 65 1;
#X connect 67 0 99 0;
#X connect 68 0 67 1;
#X connect 69 0 96 0;
#X connect 70 0 69 1;
#X connect 71 0 1 0;
#X connect 72 0 6 0;
#X connect 73 0 12 0;
#X connect 74 0 19 0;
#X connect 75 0 25 0;
#X connect 76 0 30 0;
#X connect 77 0 36 0;
#X connect 78 0 43 0;
#X connect 79 0 2 1;
#X connect 80 0 1 0;
#X connect 81 0 6 0;
#X connect 82 0 12 0;
#X connect 83 0 85 0;
#X connect 84 0 18 0;
#X connect 85 0 84 1;
#X connect 86 0 88 0;
#X connect 87 0 11 0;
#X connect 88 0 87 1;
#X connect 89 0 91 0;
#X connect 90 0 5 0;
#X connect 91 0 90 1;
#X connect 92 0 94 0;
#X connect 93 0 0 0;
#X connect 94 0 93 1;
#X connect 95 0 97 0;
#X connect 96 0 42 0;
#X connect 97 0 96 1;
#X connect 98 0 100 0;
#X connect 99 0 35 0;
#X connect 100 0 99 1;
#X connect 101 0 103 0;
#X connect 102 0 29 0;
#X connect 103 0 102 1;
#X connect 104 0 106 0;
#X connect 105 0 24 0;
#X connect 106 0 105 1;
#X connect 107 0 2 3;
#X connect 108 0 7 3;
#X connect 109 0 13 3;
#X connect 110 0 20 3;
#X connect 111 0 26 3;
#X connect 112 0 31 3;
#X connect 113 0 37 3;
#X connect 114 0 2 2;
#X restore 43 233 pd toile_fond;
#N canvas 23 25 1360 831 sattelites 0;
#X msg 127 94 open fragments/magfrag1.wav;
#X obj 95 71 t b b;
#X obj 95 122 readsf~;
#X msg 95 94 1;
#X obj 95 204 spat4;
#X msg 288 181 1;
#X obj 159 152 loadbang;
#X obj 8 176 send~ frag1;
#X obj 95 45 loadbang;
#X obj 158 44 bng 19 250 50 0 empty empty empty 0 -10 0 12 #fcfcfc #000000 #000000;
#X obj 95 146 *~;
#X msg 158 68 0.9 30;
#X obj 158 127 line~;
#X obj 427 77 t b b;
#X obj 427 128 readsf~;
#X msg 427 100 1;
#X obj 427 210 spat4;
#X msg 620 187 1;
#X obj 491 158 loadbang;
#X obj 427 51 loadbang;
#X obj 490 50 bng 19 250 50 0 empty empty empty 0 -10 0 12 #fcfcfc #000000 #000000;
#X obj 427 152 *~;
#X msg 490 74 0.9 30;
#X obj 490 133 line~;
#X msg 459 100 open fragments/magfrag2.wav;
#X msg 223 181 0.2;
#X msg 555 187 -0.3;
#X obj 340 182 send~ frag2;
#X obj 759 82 t b b;
#X obj 759 133 readsf~;
#X msg 759 105 1;
#X obj 759 215 spat4;
#X msg 952 192 1;
#X obj 823 163 loadbang;
#X obj 759 56 loadbang;
#X obj 822 55 bng 19 250 50 0 empty empty empty 0 -10 0 12 #fcfcfc #000000 #000000;
#X msg 823 191 1;
#X obj 759 157 *~;
#X msg 822 79 0.9 30;
#X obj 822 138 line~;
#X obj 1097 87 t b b;
#X obj 1097 138 readsf~;
#X msg 1097 110 1;
#X obj 1097 220 spat4;
#X msg 1290 197 1;
#X obj 1161 168 loadbang;
#X obj 1097 61 loadbang;
#X obj 1160 60 bng 19 250 50 0 empty empty empty 0 -10 0 12 #fcfcfc #000000 #000000;
#X msg 1161 196 1;
#X obj 1097 162 *~;
#X msg 1160 84 0.9 30;
#X obj 1160 143 line~;
#X msg 791 105 open fragments/magfrag3.wav;
#X msg 1129 110 open fragments/magfrag4.wav;
#X obj 672 187 send~ frag3;
#X obj 1010 192 send~ frag4;
#X msg 491 186 1;
#X msg 159 180 1;
#X obj 100 450 t b b;
#X obj 100 501 readsf~;
#X msg 100 473 1;
#X obj 100 583 spat4;
#X msg 293 560 1;
#X obj 164 531 loadbang;
#X obj 100 424 loadbang;
#X obj 163 423 bng 19 250 50 0 empty empty empty 0 -10 0 12 #fcfcfc #000000 #000000;
#X obj 100 525 *~;
#X msg 163 447 0.9 30;
#X obj 163 506 line~;
#X obj 432 456 t b b;
#X obj 432 507 readsf~;
#X msg 432 479 1;
#X obj 432 589 spat4;
#X obj 496 537 loadbang;
#X obj 432 430 loadbang;
#X obj 495 429 bng 19 250 50 0 empty empty empty 0 -10 0 12 #fcfcfc #000000 #000000;
#X obj 432 531 *~;
#X obj 495 512 line~;
#X obj 764 461 t b b;
#X obj 764 512 readsf~;
#X msg 764 484 1;
#X obj 764 594 spat4;
#X msg 957 571 1;
#X obj 828 542 loadbang;
#X obj 764 435 loadbang;
#X obj 827 434 bng 19 250 50 0 empty empty empty 0 -10 0 12 #fcfcfc #000000 #000000;
#X msg 828 570 1;
#X obj 764 536 *~;
#X msg 827 458 0.9 30;
#X obj 827 517 line~;
#X obj 1102 466 t b b;
#X obj 1102 517 readsf~;
#X msg 1102 489 1;
#X obj 1102 599 spat4;
#X msg 1295 576 1;
#X obj 1166 547 loadbang;
#X obj 1102 440 loadbang;
#X obj 1165 439 bng 19 250 50 0 empty empty empty 0 -10 0 12 #fcfcfc #000000 #000000;
#X msg 1166 575 1;
#X obj 1102 541 *~;
#X msg 1165 463 0.9 30;
#X obj 1165 522 line~;
#X msg 1230 576 -0.7;
#X msg 496 565 1;
#X msg 164 559 1;
#X obj 13 555 send~ frag5;
#X obj 345 561 send~ frag6;
#X obj 677 566 send~ frag7;
#X obj 1015 571 send~ frag8;
#X msg 132 473 open fragments/magfrag5.wav;
#X msg 464 479 open fragments/magfrag6.wav;
#X msg 796 484 open fragments/magfrag7.wav;
#X msg 1134 489 open fragments/magfrag8.wav;
#X msg 887 192 0.4;
#X msg 1225 197 -0.35;
#X msg 892 571 0.6;
#X msg 560 566 0.25;
#X msg 625 566 0.8;
#X msg 228 560 -0.35;
#X msg 495 453 1 30;
#X msg 218 68 0 15000;
#X msg 548 73 0 15000;
#X msg 881 78 0 15000;
#X msg 1218 84 0 15000;
#X obj 218 45 r effondrement;
#X obj 548 50 r effondrement;
#X obj 881 54 r effondrement;
#X obj 1218 60 r effondrement;
#X msg 223 447 0 15000;
#X obj 223 424 r effondrement;
#X msg 541 452 0 15000;
#X obj 541 429 r effondrement;
#X msg 885 456 0 15000;
#X obj 885 433 r effondrement;
#X msg 1224 462 0 15000;
#X obj 1224 439 r effondrement;
#X connect 0 0 2 0;
#X connect 1 0 3 0;
#X connect 1 1 0 0;
#X connect 2 0 10 0;
#X connect 2 1 1 0;
#X connect 3 0 2 0;
#X connect 5 0 4 3;
#X connect 6 0 57 0;
#X connect 6 0 25 0;
#X connect 6 0 5 0;
#X connect 8 0 1 0;
#X connect 9 0 11 0;
#X connect 10 0 4 0;
#X connect 10 0 7 0;
#X connect 11 0 12 0;
#X connect 12 0 10 1;
#X connect 13 0 15 0;
#X connect 13 1 24 0;
#X connect 14 0 21 0;
#X connect 14 1 13 0;
#X connect 15 0 14 0;
#X connect 17 0 16 3;
#X connect 18 0 56 0;
#X connect 18 0 17 0;
#X connect 18 0 26 0;
#X connect 19 0 13 0;
#X connect 20 0 22 0;
#X connect 21 0 16 0;
#X connect 21 0 27 0;
#X connect 22 0 23 0;
#X connect 23 0 21 1;
#X connect 24 0 14 0;
#X connect 25 0 4 2;
#X connect 26 0 16 2;
#X connect 28 0 30 0;
#X connect 28 1 52 0;
#X connect 29 0 37 0;
#X connect 29 1 28 0;
#X connect 30 0 29 0;
#X connect 32 0 31 3;
#X connect 33 0 36 0;
#X connect 33 0 113 0;
#X connect 33 0 32 0;
#X connect 34 0 28 0;
#X connect 35 0 38 0;
#X connect 36 0 31 1;
#X connect 37 0 31 0;
#X connect 37 0 54 0;
#X connect 38 0 39 0;
#X connect 39 0 37 1;
#X connect 40 0 42 0;
#X connect 40 1 53 0;
#X connect 41 0 49 0;
#X connect 41 1 40 0;
#X connect 42 0 41 0;
#X connect 44 0 43 3;
#X connect 45 0 48 0;
#X connect 45 0 44 0;
#X connect 45 0 114 0;
#X connect 46 0 40 0;
#X connect 47 0 50 0;
#X connect 48 0 43 1;
#X connect 49 0 43 0;
#X connect 49 0 55 0;
#X connect 50 0 51 0;
#X connect 51 0 49 1;
#X connect 52 0 29 0;
#X connect 53 0 41 0;
#X connect 56 0 16 1;
#X connect 57 0 4 1;
#X connect 58 0 60 0;
#X connect 58 1 109 0;
#X connect 59 0 66 0;
#X connect 59 1 58 0;
#X connect 60 0 59 0;
#X connect 62 0 61 3;
#X connect 63 0 104 0;
#X connect 63 0 118 0;
#X connect 63 0 62 0;
#X connect 64 0 58 0;
#X connect 65 0 67 0;
#X connect 66 0 61 0;
#X connect 66 0 105 0;
#X connect 67 0 68 0;
#X connect 68 0 66 1;
#X connect 69 0 71 0;
#X connect 69 1 110 0;
#X connect 70 0 76 0;
#X connect 70 1 69 0;
#X connect 71 0 70 0;
#X connect 73 0 103 0;
#X connect 73 0 117 0;
#X connect 73 0 116 0;
#X connect 74 0 69 0;
#X connect 75 0 119 0;
#X connect 76 0 72 0;
#X connect 76 0 106 0;
#X connect 77 0 76 1;
#X connect 78 0 80 0;
#X connect 78 1 111 0;
#X connect 79 0 87 0;
#X connect 79 1 78 0;
#X connect 80 0 79 0;
#X connect 82 0 81 3;
#X connect 83 0 86 0;
#X connect 83 0 115 0;
#X connect 83 0 82 0;
#X connect 84 0 78 0;
#X connect 85 0 88 0;
#X connect 86 0 81 1;
#X connect 87 0 81 0;
#X connect 87 0 107 0;
#X connect 88 0 89 0;
#X connect 89 0 87 1;
#X connect 90 0 92 0;
#X connect 90 1 112 0;
#X connect 91 0 99 0;
#X connect 91 1 90 0;
#X connect 92 0 91 0;
#X connect 94 0 93 3;
#X connect 95 0 98 0;
#X connect 95 0 94 0;
#X connect 95 0 102 0;
#X connect 96 0 90 0;
#X connect 97 0 100 0;
#X connect 98 0 93 1;
#X connect 99 0 93 0;
#X connect 99 0 108 0;
#X connect 100 0 101 0;
#X connect 101 0 99 1;
#X connect 102 0 93 2;
#X connect 103 0 72 1;
#X connect 104 0 61 1;
#X connect 109 0 59 0;
#X connect 110 0 70 0;
#X connect 111 0 79 0;
#X connect 112 0 91 0;
#X connect 113 0 31 2;
#X connect 114 0 43 2;
#X connect 115 0 81 2;
#X connect 116 0 72 2;
#X connect 117 0 72 3;
#X connect 118 0 61 2;
#X connect 119 0 77 0;
#X connect 120 0 12 0;
#X connect 121 0 23 0;
#X connect 122 0 39 0;
#X connect 123 0 51 0;
#X connect 124 0 120 0;
#X connect 125 0 121 0;
#X connect 126 0 122 0;
#X connect 127 0 123 0;
#X connect 128 0 68 0;
#X connect 129 0 128 0;
#X connect 130 0 77 0;
#X connect 131 0 130 0;
#X connect 132 0 89 0;
#X connect 133 0 132 0;
#X connect 134 0 101 0;
#X connect 135 0 134 0;
#X restore 45 464 pd sattelites;
#X obj 166 360 send~ sphere_vol;
#X obj 169 234 hsl 162 19 0 127 0 0 empty empty empty -2 -10 0 12 #fcfcfc #000000 #000000 0 1;
#X obj 166 258 / 127;
#X msg 166 312 \$1 30;
#X obj 166 336 line~;
#X floatatom 203 282 5 0 0 0 - - - 0;
#X obj 166 282 / 5;
#X msg 216 312 0.14 30;
#N canvas 63 88 876 708 starlink 0;
#X obj 95 71 t b b;
#X obj 95 122 readsf~;
#X msg 95 94 1;
#X obj 95 204 spat4;
#X msg 288 181 1;
#X obj 159 152 loadbang;
#X obj 95 45 loadbang;
#X obj 158 44 bng 19 250 50 0 empty empty empty 0 -10 0 12 #fcfcfc #000000 #000000;
#X obj 95 146 *~;
#X obj 158 127 line~;
#X msg 159 180 1;
#X msg 127 94 open fragments/starlink1.wav;
#X obj 8 176 send~ star1;
#X msg 223 181 0.7;
#X obj 476 78 t b b;
#X obj 476 129 readsf~;
#X msg 476 101 1;
#X obj 476 211 spat4;
#X msg 669 188 1;
#X obj 540 159 loadbang;
#X obj 476 52 loadbang;
#X obj 539 51 bng 19 250 50 0 empty empty empty 0 -10 0 12 #fcfcfc #000000 #000000;
#X obj 476 153 *~;
#X obj 539 134 line~;
#X msg 540 187 1;
#X obj 389 183 send~ star2;
#X msg 604 188 -0.6;
#X msg 508 101 open fragments/starlink2.wav;
#X obj 329 449 metro 2000;
#X obj 329 519 / 1000;
#X msg 328 544 \$1 1000;
#X obj 328 422 tgl 19 0 empty empty empty 0 -10 0 12 #fcfcfc #000000 #000000 0 1;
#X obj 329 473 random 2000;
#X obj 329 497 - 1000;
#X obj 328 567 line;
#X floatatom 328 591 5 0 0 0 - - - 0;
#X obj 335 398 loadbang;
#X obj 741 449 metro 2000;
#X obj 741 519 / 1000;
#X msg 740 544 \$1 1000;
#X obj 740 422 tgl 19 0 empty empty empty 0 -10 0 12 #fcfcfc #000000 #000000 0 1;
#X obj 741 473 random 2000;
#X obj 741 497 - 1000;
#X obj 740 567 line;
#X floatatom 740 591 5 0 0 0 - - - 0;
#X obj 747 398 loadbang;
#X msg 158 68 0.9 20000;
#X msg 539 75 0.9 20000;
#X connect 0 0 2 0;
#X connect 0 1 11 0;
#X connect 1 0 8 0;
#X connect 1 1 0 0;
#X connect 2 0 1 0;
#X connect 4 0 3 3;
#X connect 5 0 10 0;
#X connect 5 0 13 0;
#X connect 5 0 4 0;
#X connect 6 0 0 0;
#X connect 7 0 46 0;
#X connect 8 0 3 0;
#X connect 8 0 12 0;
#X connect 9 0 8 1;
#X connect 10 0 3 1;
#X connect 11 0 1 0;
#X connect 13 0 3 2;
#X connect 14 0 16 0;
#X connect 14 1 27 0;
#X connect 15 0 22 0;
#X connect 15 1 14 0;
#X connect 16 0 15 0;
#X connect 18 0 17 3;
#X connect 19 0 24 0;
#X connect 19 0 26 0;
#X connect 19 0 18 0;
#X connect 20 0 14 0;
#X connect 21 0 47 0;
#X connect 22 0 17 0;
#X connect 22 0 25 0;
#X connect 23 0 22 1;
#X connect 24 0 17 1;
#X connect 26 0 17 2;
#X connect 27 0 15 0;
#X connect 28 0 32 0;
#X connect 29 0 30 0;
#X connect 30 0 34 0;
#X connect 31 0 28 0;
#X connect 32 0 33 0;
#X connect 33 0 29 0;
#X connect 34 0 35 0;
#X connect 35 0 3 2;
#X connect 36 0 31 0;
#X connect 37 0 41 0;
#X connect 38 0 39 0;
#X connect 39 0 43 0;
#X connect 40 0 37 0;
#X connect 41 0 42 0;
#X connect 42 0 38 0;
#X connect 43 0 44 0;
#X connect 44 0 17 2;
#X connect 45 0 40 0;
#X connect 46 0 9 0;
#X connect 47 0 23 0;
#X restore 56 501 pd starlink;
#X obj 585 279 noise~;
#X obj 584 356 spat4;
#X obj 584 304 lop~ 200;
#X obj 584 329 *~ 0;
#X connect 1 0 0 0;
#X connect 4 0 5 0;
#X connect 5 0 3 1;
#X connect 6 0 7 0;
#X connect 7 0 3 0;
#X connect 8 0 3 2;
#X connect 9 0 8 0;
#X connect 18 0 19 0;
#X connect 19 0 23 0;
#X connect 20 0 21 0;
#X connect 21 0 17 0;
#X connect 23 0 20 0;
#X connect 23 0 22 0;
#X connect 24 0 21 0;
#X connect 26 0 28 0;
#X connect 28 0 29 0;
#X connect 29 0 27 0;
