#N canvas 1 25 1181 837 12;
#X msg 26 49 \; pd dsp \$1 \;;
#X obj 26 26 tgl 19 0 empty empty start\ sound 0 -10 0 12 #c6ffc7 #000000 #000000 0 1;
#N canvas 353 378 450 278 (subpatch) 0;
#X array data_shape 100 float 1;
#A 0 0.578571 0.578571 0.578571 0.578571 0.578571 0.578571 0.578571 0.578571 0.578571 0.578571 0.821418 0.692852 0.667853 0.60357 0.575 0.164304 0.157161 0.150019 0.142876 0.135734 0.128591 0.114306 0.103592 0.0893072 0.0821646 0.060737 0.0535945 0.0500232 0.0428807 0.0428807 0.0571657 0.0785934 0.103592 0.139305 0.207159 0.307155 0.339296 0.35001 0.353581 0.364295 0.367866 0.37858 0.385723 0.389294 0.394651 0.400008 0.403579 0.414293 0.417864 0.421435 0.425007 0.40715 0.160733 0.128591 0.0964497 0.0821646 0.0857359 0.0928785 0.100021 0.117877 0.128591 0.135734 0.146448 0.160733 0.178589 0.196445 0.221444 0.257157 0.282156 0.353581 0.414293 0.453577 0.492861 0.532145 0.564286 0.607142 0.632141 0.653568 0.674996 0.692852 0.71428 0.735707 0.764278 0.785705 0.810704 0.832132 0.842846 0.864273 0.878558 0.907128 0.928556 0.93927 0.946412 0.953555 0.960698 0.974983 0.978554 0.989268 0.992839 0.989268;
#X coords 0 1 99 0 177 131 1 0 0;
#X restore 977 34 graph;
#N canvas 63 88 450 300 choice 0;
#X obj 94 157 inlet;
#X obj 94 179 spigot;
#X obj 159 158 inlet;
#X obj 159 182 spigot;
#X obj 203 114 - 1;
#X obj 203 136 tgl 15 0 empty empty empty 17 7 0 10 #fcfcfc #000000 #000000 0 1;
#X obj 203 157 change;
#X obj 301 53 inlet;
#X obj 91 235 outlet;
#X connect 0 0 1 0;
#X connect 1 0 8 0;
#X connect 2 0 3 0;
#X connect 3 0 8 0;
#X connect 4 0 5 0;
#X connect 5 0 6 0;
#X connect 6 0 3 1;
#X connect 7 0 4 0;
#X connect 7 0 1 1;
#X restore 665 154 pd choice;
#X obj 695 104 r bangdata;
#X obj 695 128 bng 19 250 50 0 empty empty empty 0 -10 0 12 #fcfcfc #000000 #000000;
#X obj 665 78 r bangsimulateur;
#X obj 665 102 bng 19 250 50 0 empty empty empty 0 -10 0 12 #fcfcfc #000000 #000000;
#X obj 794 135 tgl 19 0 empty empty choix_simulateur_data 0 -10 0 12 #c6ffc7 #000000 #000000 0 1;
#X obj 794 93 loadbang;
#N canvas 150 175 689 532 data_receive 0;
#X obj 264 132 oscformat;
#X obj 185 109 oscparse;
#X msg 185 62 listen 10300;
#X obj 185 87 netreceive -u -b 10300;
#X obj 274 200 bng 15 250 50 0 empty empty empty 17 7 0 10 #fcfcfc #000000 #000000;
#X obj 185 156 route data_clock data_bang;
#X obj 185 132 route list;
#X obj 274 179 sel 1;
#X obj 285 312 f;
#X obj 285 356 sel 0;
#X obj 265 377 bng 15 250 50 0 empty empty empty 17 7 0 10 #fcfcfc #000000 #000000;
#X obj 319 311 + 1;
#X obj 389 255 timer;
#X floatatom 389 277 5 0 0 0 - - - 0;
#X obj 389 215 tgl 15 0 empty empty empty 17 7 0 10 #fcfcfc #000000 #000000 0 1;
#X obj 389 233 sel 0 1;
#X obj 389 320 tgl 15 0 empty empty empty 17 7 0 10 #fcfcfc #000000 #000000 0 1;
#X obj 235 288 spigot;
#X obj 285 288 spigot;
#X obj 324 222 - 1;
#X obj 324 244 tgl 15 0 empty empty empty 17 7 0 10 #fcfcfc #000000 #000000 0 1;
#X obj 324 265 change;
#X obj 285 377 bng 15 250 50 0 empty empty empty 17 7 0 10 #fcfcfc #000000 #000000;
#X text 64 60 commande de unity -> un clock de 0 à 1 + des bangs (envoi de données), f 15;
#X obj 265 421 s bangdata;
#X obj 285 334 % 100;
#X text 389 128 quand le tps entre 2 données > 10ms il prend tout les bangs sinon filtre tous les 100 bangs, f 20;
#X obj 389 299 > 10;
#X connect 1 0 6 0;
#X connect 2 0 3 0;
#X connect 3 0 1 0;
#X connect 4 0 14 0;
#X connect 4 0 17 0;
#X connect 4 0 18 0;
#X connect 5 1 7 0;
#X connect 6 0 5 0;
#X connect 7 0 4 0;
#X connect 8 0 11 0;
#X connect 8 0 25 0;
#X connect 9 0 22 0;
#X connect 10 0 24 0;
#X connect 11 0 8 1;
#X connect 12 0 13 0;
#X connect 13 0 27 0;
#X connect 14 0 15 0;
#X connect 15 0 12 0;
#X connect 15 1 12 1;
#X connect 16 0 17 1;
#X connect 16 0 19 0;
#X connect 17 0 10 0;
#X connect 18 0 8 0;
#X connect 19 0 20 0;
#X connect 20 0 21 0;
#X connect 21 0 18 1;
#X connect 22 0 24 0;
#X connect 25 0 9 0;
#X connect 27 0 16 0;
#X restore 666 23 pd data_receive;
#N canvas 179 204 380 532 data_simul 0;
#X obj 120 159 snapshot~;
#X floatatom 119 184 6 0 0 0 - - - 0;
#X obj 127 110 tgl 19 0 empty empty empty 0 -10 0 12 #fcfcfc #000000 #000000 0 1;
#X obj 127 133 metro 10;
#X obj 121 59 *~ 100;
#X obj 87 447 metro;
#X floatatom 119 231 5 0 0 0 - - - 0;
#X obj 119 373 -;
#X obj 119 325 t b a;
#X floatatom 119 397 5 0 0 0 - - - 0;
#X obj 119 254 max 0;
#X floatatom 119 302 5 0 0 0 - - - 0;
#X obj 87 424 tgl 19 0 empty empty empty 0 -10 0 12 #fcfcfc #000000 #000000 0 1;
#X obj 121 35 phasor~ 0.02;
#X obj 119 207 * 500;
#X obj 119 278 min 500;
#X msg 119 349 500;
#X obj 119 420 + 10;
#X obj 121 83 tabread~ data_shape;
#X obj 55 398 loadbang;
#X obj 151 110 loadbang;
#X obj 87 471 s bangsimulateur;
#X connect 0 0 1 0;
#X connect 1 0 14 0;
#X connect 2 0 3 0;
#X connect 3 0 0 0;
#X connect 4 0 18 0;
#X connect 5 0 21 0;
#X connect 6 0 10 0;
#X connect 7 0 9 0;
#X connect 8 0 16 0;
#X connect 8 1 7 1;
#X connect 9 0 17 0;
#X connect 10 0 15 0;
#X connect 11 0 8 0;
#X connect 12 0 5 0;
#X connect 13 0 4 0;
#X connect 14 0 6 0;
#X connect 15 0 11 0;
#X connect 16 0 7 0;
#X connect 17 0 5 1;
#X connect 18 0 0 0;
#X connect 19 0 12 0;
#X connect 20 0 2 0;
#X restore 665 48 pd data_simul;
#X text 821 133 X = sim O = data;
#X text 875 35 dessiner la courbe du nombre de data (simulateur), f 12;
#X msg 386 235 open fragments/magfrag1.wav;
#X obj 354 212 t b b;
#X obj 354 263 readsf~;
#X msg 354 235 1;
#X obj 354 190 bng 19 250 50 0 empty empty empty 0 -10 0 12 #fcfcfc #000000 #000000;
#X obj 354 314 spat4;
#X msg 547 291 1;
#X obj 418 262 loadbang;
#X msg 418 290 0.9;
#X msg 482 291 0.8;
#X obj 325 288 send~ frag1;
#N canvas 63 88 426 442 effacement 0;
#X obj 158 101 env~;
#X floatatom 158 125 5 0 0 0 - - - 0;
#X obj 158 148 clip 0 100;
#X floatatom 158 197 5 0 0 0 - - - 0;
#X obj 158 219 t b a;
#X msg 123 238 1;
#X obj 123 262 -;
#X floatatom 123 309 5 0 0 0 - - - 0;
#X obj 123 286 clip 0 1;
#X msg 123 331 \$1 200;
#X obj 158 172 / 70;
#X obj 123 355 s effacement;
#X obj 158 77 receive~ frag1;
#X connect 0 0 1 0;
#X connect 1 0 2 0;
#X connect 2 0 10 0;
#X connect 3 0 4 0;
#X connect 4 0 5 0;
#X connect 4 1 6 1;
#X connect 5 0 6 0;
#X connect 6 0 8 0;
#X connect 7 0 9 0;
#X connect 8 0 7 0;
#X connect 9 0 11 0;
#X connect 10 0 3 0;
#X connect 12 0 0 0;
#X restore 238 62 pd effacement;
#N canvas 91 25 1180 832 toile_fond 1;
#X obj 40 78 *~;
#X obj 58 56 line~;
#X obj 40 108 spat4;
#X obj 104 56 loadbang;
#X obj 40 9 osc~ 100;
#X obj 58 32 r effacement;
#X obj 308 81 *~;
#X obj 326 59 line~;
#X obj 308 111 spat4;
#X obj 372 59 loadbang;
#X obj 326 35 r effacement;
#X obj 308 12 osc~ 150;
#X msg 373 12 *3 /2;
#X msg 233 85 0.3;
#X msg 104 84 0.25;
#X obj 572 79 *~;
#X obj 590 57 line~;
#X obj 572 109 spat4;
#X obj 636 57 loadbang;
#X msg 637 9 *4 /3;
#X msg 765 86 0.5;
#X msg 168 85 -0.01;
#X obj 828 84 *~;
#X obj 846 62 line~;
#X obj 828 114 spat4;
#X obj 892 62 loadbang;
#X msg 892 90 0.2;
#X msg 894 13 *5 /4;
#X obj 828 15 osc~ 125;
#X obj 43 380 *~;
#X obj 61 358 line~;
#X obj 43 410 spat4;
#X obj 107 358 loadbang;
#X obj 61 334 r effacement;
#X obj 311 383 *~;
#X obj 329 361 line~;
#X obj 311 413 spat4;
#X obj 375 361 loadbang;
#X obj 329 337 r effacement;
#X obj 43 311 osc~ 200;
#X obj 311 314 osc~ 300;
#X obj 572 10 osc~ 133;
#X msg 375 389 0.3;
#X obj 590 33 r effacement;
#X obj 846 38 r effacement;
#X obj 573 382 *~;
#X obj 591 360 line~;
#X obj 573 412 spat4;
#X obj 637 360 loadbang;
#X msg 701 389 0.03;
#X msg 766 389 0.5;
#X obj 829 384 *~;
#X obj 847 362 line~;
#X obj 829 414 spat4;
#X obj 893 362 loadbang;
#X obj 591 336 r effacement;
#X obj 847 338 r effacement;
#X obj 573 313 osc~ 266;
#X obj 829 315 osc~ 250;
#X msg 637 388 0.3;
#X msg 893 390 0.3;
#X msg 957 391 0.05;
#X msg 956 91 -0.04;
#X msg 171 387 0.01;
#X msg 107 386 0.3;
#X msg 236 387 0.3;
#X msg 504 390 0.7;
#X msg 501 88 0.7;
#X msg 1021 91 0.8;
#X msg 1022 391 0.8;
#X msg 436 88 0.02;
#X msg 439 390 -0.02;
#X msg 372 87 0.25;
#X msg 636 85 0.25;
#X msg 700 86 -0.03;
#X obj 45 686 *~;
#X obj 63 664 line~;
#X obj 45 716 spat4;
#X obj 109 664 loadbang;
#X obj 63 640 r effacement;
#X obj 313 689 *~;
#X obj 331 667 line~;
#X obj 313 719 spat4;
#X obj 377 667 loadbang;
#X obj 331 643 r effacement;
#X msg 377 695 0.3;
#X obj 575 688 *~;
#X obj 593 666 line~;
#X obj 575 718 spat4;
#X obj 639 666 loadbang;
#X msg 703 695 0.03;
#X msg 768 695 0.5;
#X obj 831 690 *~;
#X obj 849 668 line~;
#X obj 831 720 spat4;
#X obj 895 668 loadbang;
#X obj 593 642 r effacement;
#X obj 849 644 r effacement;
#X msg 639 694 0.3;
#X msg 895 696 0.3;
#X msg 959 697 0.05;
#X msg 238 693 0.3;
#X msg 506 696 0.7;
#X msg 1024 697 0.8;
#X msg 441 696 -0.02;
#X obj 45 617 osc~ 400;
#X msg 109 692 0.2;
#X msg 173 693 0.015;
#X obj 313 620 osc~ 600;
#X obj 575 619 osc~ 532;
#X obj 831 621 osc~ 500;
#X obj 958 618 osc~ 4000;
#X obj 958 642 *~ 0.05;
#X obj 707 642 *~ 0.05;
#X obj 707 618 osc~ 4256;
#X obj 451 641 *~ 0.05;
#X obj 183 643 *~ 0.05;
#X obj 451 617 osc~ 4800;
#X msg 7 311 *2;
#X msg 12 617 *4;
#X obj 183 619 osc~ 3200;
#X msg 1030 619 *8;
#X obj 178 333 *~ 1;
#X msg 245 311 *6 /5;
#X obj 178 311 osc~ 240;
#X msg 500 313 *7 /6;
#X obj 435 335 *~ 1;
#X obj 435 313 osc~ 350;
#X msg 766 311 *8 /7;
#X obj 684 311 osc~ 304.7;
#X obj 943 315 osc~ 281.25;
#X msg 1030 315 *9 /8;
#X obj 943 337 *~ 0.8;
#X obj 684 333 *~ 0.8;
#X msg 1019 9 *9 /8;
#X obj 946 9 osc~ 1125;
#X obj 946 32 *~ 0.3;
#X msg 775 7 *8 /7;
#X obj 683 7 osc~ 1218.8;
#X obj 683 29 *~ 0.3;
#X msg 504 9 *7 /6;
#X obj 430 9 osc~ 700;
#X obj 430 31 *~ 0.5;
#X msg 239 11 *6 /5;
#X obj 172 11 osc~ 480;
#X obj 172 33 *~ 0.9;
#X connect 0 0 2 0;
#X connect 1 0 0 1;
#X connect 3 0 14 0;
#X connect 3 0 21 0;
#X connect 3 0 13 0;
#X connect 4 0 0 0;
#X connect 5 0 1 0;
#X connect 6 0 8 0;
#X connect 7 0 6 1;
#X connect 9 0 72 0;
#X connect 9 0 70 0;
#X connect 9 0 67 0;
#X connect 10 0 7 0;
#X connect 11 0 6 0;
#X connect 13 0 2 3;
#X connect 14 0 2 1;
#X connect 15 0 17 0;
#X connect 16 0 15 1;
#X connect 18 0 73 0;
#X connect 18 0 74 0;
#X connect 18 0 20 0;
#X connect 20 0 17 3;
#X connect 21 0 2 2;
#X connect 22 0 24 0;
#X connect 23 0 22 1;
#X connect 25 0 26 0;
#X connect 25 0 62 0;
#X connect 25 0 68 0;
#X connect 26 0 24 1;
#X connect 28 0 22 0;
#X connect 29 0 31 0;
#X connect 30 0 29 1;
#X connect 32 0 64 0;
#X connect 32 0 63 0;
#X connect 32 0 65 0;
#X connect 33 0 30 0;
#X connect 34 0 36 0;
#X connect 35 0 34 1;
#X connect 37 0 42 0;
#X connect 37 0 71 0;
#X connect 37 0 66 0;
#X connect 38 0 35 0;
#X connect 39 0 29 0;
#X connect 40 0 34 0;
#X connect 41 0 15 0;
#X connect 42 0 36 1;
#X connect 43 0 16 0;
#X connect 44 0 23 0;
#X connect 45 0 47 0;
#X connect 46 0 45 1;
#X connect 48 0 59 0;
#X connect 48 0 49 0;
#X connect 48 0 50 0;
#X connect 49 0 47 2;
#X connect 50 0 47 3;
#X connect 51 0 53 0;
#X connect 52 0 51 1;
#X connect 54 0 60 0;
#X connect 54 0 61 0;
#X connect 54 0 69 0;
#X connect 55 0 46 0;
#X connect 56 0 52 0;
#X connect 57 0 45 0;
#X connect 58 0 51 0;
#X connect 59 0 47 1;
#X connect 60 0 53 1;
#X connect 61 0 53 2;
#X connect 62 0 24 2;
#X connect 63 0 31 2;
#X connect 64 0 31 1;
#X connect 65 0 31 3;
#X connect 66 0 36 3;
#X connect 67 0 8 3;
#X connect 68 0 24 3;
#X connect 69 0 53 3;
#X connect 70 0 8 2;
#X connect 71 0 36 2;
#X connect 72 0 8 1;
#X connect 73 0 17 1;
#X connect 74 0 17 2;
#X connect 75 0 77 0;
#X connect 76 0 75 1;
#X connect 78 0 106 0;
#X connect 78 0 101 0;
#X connect 78 0 107 0;
#X connect 79 0 76 0;
#X connect 80 0 82 0;
#X connect 81 0 80 1;
#X connect 83 0 85 0;
#X connect 83 0 104 0;
#X connect 83 0 102 0;
#X connect 84 0 81 0;
#X connect 85 0 82 1;
#X connect 86 0 88 0;
#X connect 87 0 86 1;
#X connect 89 0 98 0;
#X connect 89 0 90 0;
#X connect 89 0 91 0;
#X connect 90 0 88 2;
#X connect 91 0 88 3;
#X connect 92 0 94 0;
#X connect 93 0 92 1;
#X connect 95 0 99 0;
#X connect 95 0 100 0;
#X connect 95 0 103 0;
#X connect 96 0 87 0;
#X connect 97 0 93 0;
#X connect 98 0 88 1;
#X connect 99 0 94 1;
#X connect 100 0 94 2;
#X connect 101 0 77 3;
#X connect 102 0 82 3;
#X connect 103 0 94 3;
#X connect 104 0 82 2;
#X connect 105 0 75 0;
#X connect 106 0 77 1;
#X connect 107 0 77 2;
#X connect 108 0 80 0;
#X connect 109 0 86 0;
#X connect 110 0 92 0;
#X connect 111 0 112 0;
#X connect 112 0 92 0;
#X connect 113 0 86 0;
#X connect 114 0 113 0;
#X connect 115 0 80 0;
#X connect 116 0 75 0;
#X connect 117 0 115 0;
#X connect 120 0 116 0;
#X connect 122 0 29 0;
#X connect 124 0 122 0;
#X connect 126 0 34 0;
#X connect 127 0 126 0;
#X connect 129 0 133 0;
#X connect 130 0 132 0;
#X connect 132 0 51 0;
#X connect 133 0 45 0;
#X connect 135 0 136 0;
#X connect 136 0 22 0;
#X connect 138 0 139 0;
#X connect 139 0 15 0;
#X connect 141 0 142 0;
#X connect 142 0 6 0;
#X connect 144 0 145 0;
#X connect 145 0 0 0;
#X restore 237 104 pd toile_fond;
#X connect 1 0 0 0;
#X connect 4 0 5 0;
#X connect 5 0 3 1;
#X connect 6 0 7 0;
#X connect 7 0 3 0;
#X connect 8 0 3 2;
#X connect 9 0 8 0;
#X connect 14 0 16 0;
#X connect 15 0 17 0;
#X connect 15 1 14 0;
#X connect 16 0 24 0;
#X connect 16 0 19 0;
#X connect 16 1 15 0;
#X connect 17 0 16 0;
#X connect 18 0 15 0;
#X connect 20 0 19 3;
#X connect 21 0 22 0;
#X connect 21 0 23 0;
#X connect 21 0 20 0;
#X connect 22 0 19 1;
#X connect 23 0 19 2;
