#N canvas 1 25 1181 837 12;
#X obj 23 441 phasor~ 1;
#X obj 23 600 *~;
#X obj 23 509 +~ 1;
#X obj 23 487 *~;
#X obj 25 109 loadbang;
#X obj 25 158 soundfiler;
#N canvas 0 22 450 278 (subpatch) 0;
#X array electro1 2.205e+06 float 2;
#X coords 0 1 2.205e+06 -1 200 140 1 0 0;
#X restore 180 192 graph;
#X floatatom 25 179 10 0 0 0 - - - 0;
#X floatatom 23 393 10 0 0 0 - - - 0;
#X obj 23 371 expr 44100 / $f1;
#X obj 25 199 s \$0-sampllang;
#X obj 23 347 r \$0-sampllang;
#X obj 41 464 r \$0-sampllang;
#X msg 25 133 read -maxsize 1e+09 -resize router1.wav electro1;
#X obj 23 533 tabread~ electro1;
#X obj 155 459 phasor~ 1;
#X obj 155 601 *~;
#X obj 155 509 +~ 1;
#X obj 155 487 *~;
#X obj 225 470 r \$0-sampllang;
#X obj 155 533 tabread~ electro1;
#X obj 22 674 dac~;
#X obj 333 464 phasor~ 1;
#X obj 333 606 *~;
#X obj 333 514 +~ 1;
#X obj 333 492 *~;
#X obj 403 475 r \$0-sampllang;
#X obj 333 538 tabread~ electro1;
#X obj 351 583 line~;
#X msg 26 49 \; pd dsp \$1 \;;
#X obj 26 26 tgl 19 0 empty empty start\ sound 0 -10 0 12 #c6ffc7 #000000 #000000 0 1;
#N canvas 353 378 450 278 (subpatch) 0;
#X array data_shape 100 float 1;
#A 0 0.507126 0.264283 0.324994 0.357136 0.39642 0.446418 0.499987 0.499987 0.499987 0.489273 0.474988 0.446418 0.430347 0.414276 0.39642 0.378563 0.358921 0.339279 0.328566 0.299995 0.246426 0.121432 0.153573 0.185715 0.210714 0.22857 0.292853 0.321423 0.353565 0.373207 0.392849 0.432133 0.499987 0.5232 0.546413 0.614267 0.674979 0.828544 0.889255 0.857114 0.803545 0.767832 0.692835 0.467845 0.403562 0.371421 0.357136 0.339279 0.328566 0.321423 0.314281 0.299995 0.292853 0.28571 0.278568 0.273211 0.267854 0.25714 0.255355 0.253569 0.242855 0.239284 0.742833 0.685693 0.660694 0.596411 0.582126 0.567841 0.528557 0.503558 0.474988 0.449989 0.42499 0.414276 0.410705 0.414276 0.421419 0.42499 0.435704 0.439275 0.449989 0.45356 0.960681 0.960681 0.953538 0.949967 0.949967 0.953538 0.964252 0.974966 0.992822 1.01068 1.04996 0.446418 0.432132 0.417847 0.392848 0.364278 0.332137 0.296424;
#X coords 0 1 99 0 400 280 1 0 0;
#X restore 737 289 graph;
#X obj 155 436 * 0.2;
#X obj 333 441 * 0.9;
#X obj 351 560 r vv;
#X obj 173 578 line~;
#X obj 173 555 r vv;
#X obj 41 578 line~;
#X obj 41 555 r vv;
#X obj 425 652 hsl 162 19 0 127 0 0 empty empty volume -2 -10 0 12 #c6ffc7 #000000 #000000 0 1;
#X obj 422 676 / 127;
#X msg 422 700 \$1 30;
#X obj 422 724 line~;
#X obj 23 632 *~;
#N canvas 63 88 450 300 choice 0;
#X obj 94 157 inlet;
#X obj 94 179 spigot;
#X obj 159 158 inlet;
#X obj 159 182 spigot;
#X obj 203 114 - 1;
#X obj 203 136 tgl 15 0 empty empty empty 17 7 0 10 #fcfcfc #000000 #000000 0 1;
#X obj 203 157 change;
#X obj 301 53 inlet;
#X obj 91 235 outlet;
#X connect 0 0 1 0;
#X connect 1 0 8 0;
#X connect 2 0 3 0;
#X connect 3 0 8 0;
#X connect 4 0 5 0;
#X connect 5 0 6 0;
#X connect 6 0 3 1;
#X connect 7 0 4 0;
#X connect 7 0 1 1;
#X restore 502 205 pd choice;
#X obj 532 155 r bangdata;
#X obj 532 179 bng 19 250 50 0 empty empty empty 0 -10 0 12 #fcfcfc #000000 #000000;
#X obj 502 129 r bangsimulateur;
#X obj 502 153 bng 19 250 50 0 empty empty empty 0 -10 0 12 #fcfcfc #000000 #000000;
#X obj 631 186 tgl 19 0 empty empty choix_simulateur_data 0 -10 0 12 #c6ffc7 #000000 #000000 0 1;
#X obj 631 144 loadbang;
#N canvas 150 175 689 532 data_receive 0;
#X obj 264 132 oscformat;
#X obj 185 109 oscparse;
#X msg 185 62 listen 10300;
#X obj 185 87 netreceive -u -b 10300;
#X obj 274 200 bng 15 250 50 0 empty empty empty 17 7 0 10 #fcfcfc #000000 #000000;
#X obj 185 156 route data_clock data_bang;
#X obj 185 132 route list;
#X obj 274 179 sel 1;
#X obj 285 312 f;
#X obj 285 356 sel 0;
#X obj 265 377 bng 15 250 50 0 empty empty empty 17 7 0 10 #fcfcfc #000000 #000000;
#X obj 319 311 + 1;
#X obj 389 255 timer;
#X floatatom 389 277 5 0 0 0 - - - 0;
#X obj 389 215 tgl 15 0 empty empty empty 17 7 0 10 #fcfcfc #000000 #000000 0 1;
#X obj 389 233 sel 0 1;
#X obj 389 320 tgl 15 0 empty empty empty 17 7 0 10 #fcfcfc #000000 #000000 0 1;
#X obj 235 288 spigot;
#X obj 285 288 spigot;
#X obj 324 222 - 1;
#X obj 324 244 tgl 15 0 empty empty empty 17 7 0 10 #fcfcfc #000000 #000000 0 1;
#X obj 324 265 change;
#X obj 285 377 bng 15 250 50 0 empty empty empty 17 7 0 10 #fcfcfc #000000 #000000;
#X text 64 60 commande de unity -> un clock de 0 à 1 + des bangs (envoi de données), f 15;
#X obj 265 421 s bangdata;
#X obj 285 334 % 100;
#X text 389 128 quand le tps entre 2 données > 10ms il prend tout les bangs sinon filtre tous les 100 bangs, f 20;
#X obj 389 299 > 10;
#X connect 1 0 6 0;
#X connect 2 0 3 0;
#X connect 3 0 1 0;
#X connect 4 0 14 0;
#X connect 4 0 17 0;
#X connect 4 0 18 0;
#X connect 5 1 7 0;
#X connect 6 0 5 0;
#X connect 7 0 4 0;
#X connect 8 0 11 0;
#X connect 8 0 25 0;
#X connect 9 0 22 0;
#X connect 10 0 24 0;
#X connect 11 0 8 1;
#X connect 12 0 13 0;
#X connect 13 0 27 0;
#X connect 14 0 15 0;
#X connect 15 0 12 0;
#X connect 15 1 12 1;
#X connect 16 0 17 1;
#X connect 16 0 19 0;
#X connect 17 0 10 0;
#X connect 18 0 8 0;
#X connect 19 0 20 0;
#X connect 20 0 21 0;
#X connect 21 0 18 1;
#X connect 22 0 24 0;
#X connect 25 0 9 0;
#X connect 27 0 16 0;
#X restore 503 74 pd data_receive;
#N canvas 179 204 380 532 data_simul 0;
#X obj 120 159 snapshot~;
#X floatatom 119 184 6 0 0 0 - - - 0;
#X obj 127 110 tgl 19 0 empty empty empty 0 -10 0 12 #fcfcfc #000000 #000000 0 1;
#X obj 127 133 metro 10;
#X obj 121 59 *~ 100;
#X obj 87 447 metro;
#X floatatom 119 231 5 0 0 0 - - - 0;
#X obj 119 373 -;
#X obj 119 325 t b a;
#X floatatom 119 397 5 0 0 0 - - - 0;
#X obj 119 254 max 0;
#X floatatom 119 302 5 0 0 0 - - - 0;
#X obj 87 424 tgl 19 0 empty empty empty 0 -10 0 12 #fcfcfc #000000 #000000 0 1;
#X obj 121 35 phasor~ 0.02;
#X obj 119 207 * 500;
#X obj 119 278 min 500;
#X msg 119 349 500;
#X obj 119 420 + 10;
#X obj 121 83 tabread~ data_shape;
#X obj 55 398 loadbang;
#X obj 151 110 loadbang;
#X obj 87 471 s bangsimulateur;
#X connect 0 0 1 0;
#X connect 1 0 14 0;
#X connect 2 0 3 0;
#X connect 3 0 0 0;
#X connect 4 0 18 0;
#X connect 5 0 21 0;
#X connect 6 0 10 0;
#X connect 7 0 9 0;
#X connect 8 0 16 0;
#X connect 8 1 7 1;
#X connect 9 0 17 0;
#X connect 10 0 15 0;
#X connect 11 0 8 0;
#X connect 12 0 5 0;
#X connect 13 0 4 0;
#X connect 14 0 6 0;
#X connect 15 0 11 0;
#X connect 16 0 7 0;
#X connect 17 0 5 1;
#X connect 18 0 0 0;
#X connect 19 0 12 0;
#X connect 20 0 2 0;
#X restore 502 99 pd data_simul;
#N canvas 208 233 232 277 tremolo 1;
#X msg 66 195 \$1 30;
#X obj 66 58 bng 19 250 50 0 empty empty empty 0 -10 0 12 #fcfcfc #000000 #000000;
#X obj 66 130 line;
#X floatatom 66 174 5 0 0 0 - - - 0;
#X msg 66 107 1 200;
#X obj 66 84 del 10;
#X msg 117 83 0 10;
#X obj 66 152 pow 2;
#X obj 66 219 s vv;
#X obj 67 33 inlet;
#X connect 0 0 8 0;
#X connect 1 0 6 0;
#X connect 1 0 5 0;
#X connect 2 0 7 0;
#X connect 3 0 0 0;
#X connect 4 0 2 0;
#X connect 5 0 4 0;
#X connect 6 0 2 0;
#X connect 7 0 3 0;
#X connect 9 0 1 0;
#X restore 502 228 pd tremolo;
#X text 658 184 X = sim O = data;
#X text 641 293 dessiner la courbe du nombre de data (simulateur), f 12;
#X connect 0 0 3 0;
#X connect 1 0 43 0;
#X connect 2 0 14 0;
#X connect 3 0 2 0;
#X connect 4 0 13 0;
#X connect 5 0 7 0;
#X connect 7 0 10 0;
#X connect 8 0 0 0;
#X connect 8 0 32 0;
#X connect 8 0 33 0;
#X connect 9 0 8 0;
#X connect 11 0 9 0;
#X connect 12 0 3 1;
#X connect 13 0 5 0;
#X connect 14 0 1 0;
#X connect 15 0 18 0;
#X connect 16 0 43 0;
#X connect 17 0 20 0;
#X connect 18 0 17 0;
#X connect 19 0 18 1;
#X connect 20 0 16 0;
#X connect 22 0 25 0;
#X connect 23 0 43 0;
#X connect 24 0 27 0;
#X connect 25 0 24 0;
#X connect 26 0 25 1;
#X connect 27 0 23 0;
#X connect 28 0 23 1;
#X connect 30 0 29 0;
#X connect 32 0 15 0;
#X connect 33 0 22 0;
#X connect 34 0 28 0;
#X connect 35 0 16 1;
#X connect 36 0 35 0;
#X connect 37 0 1 1;
#X connect 38 0 37 0;
#X connect 39 0 40 0;
#X connect 40 0 41 0;
#X connect 41 0 42 0;
#X connect 42 0 43 1;
#X connect 43 0 21 0;
#X connect 43 0 21 1;
#X connect 44 0 53 0;
#X connect 45 0 46 0;
#X connect 46 0 44 1;
#X connect 47 0 48 0;
#X connect 48 0 44 0;
#X connect 49 0 44 2;
#X connect 50 0 49 0;
