#N canvas 109 76 727 445 10;
#X obj 1 1 cnv 15 200 185 empty empty empty 20 12 0 14 #7c7c7c #404040 0;
#X obj 6 359 tgl 15 0 empty empty empty 17 7 0 10 #fcfcfc #000000 #000000 0 1;
#X obj 6 377 metro 10;
#X floatatom 150 381 5 0 0 0 - - - 0;
#X floatatom 81 381 5 0 0 0 - - - 0;
#N canvas 293 419 312 343 translate 0;
#X floatatom 65 111 5 0 0 0 - - - 0;
#X floatatom 150 103 5 0 0 0 - - - 0;
#X obj 65 129 * 1;
#X obj 150 122 * 1;
#X obj 65 150 + 1;
#X obj 65 171 / 2;
#X obj 150 143 + 1;
#X obj 150 164 / 2;
#N canvas 394 296 450 300 rayon 0;
#X obj 54 35 inlet;
#X obj 54 203 outlet;
#X obj 98 203 outlet;
#X obj 54 56 phasor~;
#X obj 54 99 snapshot~;
#X obj 54 120 * 360;
#X obj 54 140 / 180;
#X obj 54 161 * 3.14;
#X obj 54 182 t b f;
#X obj 82 76 r \$0-bb;
#X connect 0 0 3 0;
#X connect 3 0 4 0;
#X connect 4 0 5 0;
#X connect 5 0 6 0;
#X connect 6 0 7 0;
#X connect 7 0 8 0;
#X connect 8 0 1 0;
#X connect 8 1 2 0;
#X connect 9 0 4 0;
#X restore 89 41 pd rayon;
#X msg 89 63 0;
#X msg 42 41 set \$1;
#X obj 64 245 + 1;
#X obj 64 266 / 2;
#X obj 64 224 * -1;
#X obj 225 239 + 1;
#X obj 225 260 / 2;
#X obj 225 218 * -1;
#X obj 42 21 inlet;
#X obj 89 21 inlet;
#X text 35 194 1FL;
#X text 122 186 2FR;
#X text 37 287 3BR;
#X text 125 267 4BL;
#X obj 188 51 s \$0-spatvisuy;
#X obj 187 26 s \$0-spatvisux;
#X obj 64 287 s \$0-c;
#X obj 65 192 s \$0-a;
#X obj 150 185 s \$0-b;
#X obj 225 281 s \$0-d;
#X obj 89 83 poltocar;
#X connect 0 0 2 0;
#X connect 0 0 13 0;
#X connect 0 0 24 0;
#X connect 1 0 3 0;
#X connect 1 0 16 0;
#X connect 1 0 23 0;
#X connect 2 0 4 0;
#X connect 3 0 6 0;
#X connect 4 0 5 0;
#X connect 5 0 26 0;
#X connect 6 0 7 0;
#X connect 7 0 27 0;
#X connect 8 0 9 0;
#X connect 8 1 29 1;
#X connect 9 0 29 0;
#X connect 10 0 9 0;
#X connect 11 0 12 0;
#X connect 12 0 25 0;
#X connect 13 0 11 0;
#X connect 14 0 15 0;
#X connect 15 0 28 0;
#X connect 16 0 14 0;
#X connect 17 0 10 0;
#X connect 18 0 8 0;
#X connect 29 0 0 0;
#X connect 29 1 1 0;
#X restore 81 398 pd translate;
#X obj 6 338 loadbang;
#N canvas 170 83 450 300 visubar 0;
#X obj 100 100 cnv 15 85 100 empty empty empty 20 12 0 14 #000000 #404040 0;
#X obj 105 107 vsl 15 85 0 127 0 0 empty empty empty 0 -9 0 10 #000000 #fcfcfc #000000 0 1;
#X obj 63 35 * 127;
#X obj 113 35 * 127;
#X obj 174 33 * 127;
#X obj 219 33 * 127;
#X obj 125 107 vsl 15 85 0 127 0 0 empty empty empty 0 -9 0 10 #000000 #fcfcfc #000000 0 1;
#X obj 145 107 vsl 15 85 0 127 0 0 empty empty empty 0 -9 0 10 #000000 #fcfcfc #000000 0 1;
#X obj 165 107 vsl 15 85 0 127 0 0 empty empty empty 0 -9 0 10 #202020 #fcfcfc #000000 0 1;
#X obj 63 16 r \$0-a;
#X obj 113 16 r \$0-b;
#X obj 174 14 r \$0-c;
#X obj 219 14 r \$0-d;
#X connect 2 0 1 0;
#X connect 3 0 6 0;
#X connect 4 0 7 0;
#X connect 5 0 8 0;
#X connect 9 0 2 0;
#X connect 10 0 3 0;
#X connect 11 0 4 0;
#X connect 12 0 5 0;
#X coords 0 -1 1 1 85 100 2 100 100;
#X restore 110 25 pd visubar;
#N canvas 675 137 450 300 sonspat 0;
#X msg 70 126 \$1 30;
#X obj 70 148 line~;
#X obj 55 170 *~;
#X obj 56 68 inlet~;
#X msg 151 126 \$1 30;
#X obj 151 148 line~;
#X obj 136 170 *~;
#X msg 233 126 \$1 30;
#X obj 233 148 line~;
#X obj 218 170 *~;
#X msg 314 126 \$1 30;
#X obj 314 148 line~;
#X obj 299 170 *~;
#X obj 55 192 dac~ 1;
#X obj 136 192 dac~ 2;
#X obj 218 192 dac~ 3;
#X obj 299 192 dac~ 4;
#X obj 70 104 r \$0-a;
#X obj 151 104 r \$0-b;
#X obj 233 104 r \$0-c;
#X obj 314 104 r \$0-d;
#X connect 0 0 1 0;
#X connect 1 0 2 1;
#X connect 2 0 13 0;
#X connect 3 0 2 0;
#X connect 3 0 6 0;
#X connect 3 0 12 0;
#X connect 3 0 9 0;
#X connect 4 0 5 0;
#X connect 5 0 6 1;
#X connect 6 0 14 0;
#X connect 7 0 8 0;
#X connect 8 0 9 1;
#X connect 9 0 15 0;
#X connect 10 0 11 0;
#X connect 11 0 12 1;
#X connect 12 0 16 0;
#X connect 17 0 0 0;
#X connect 18 0 4 0;
#X connect 19 0 7 0;
#X connect 20 0 10 0;
#X restore 378 143 pd sonspat;
#X obj 378 119 *~;
#X obj 426 58 / 127;
#X msg 426 80 \$1 30;
#X obj 426 102 line~;
#X obj 6 398 s \$0-bb;
#N canvas 479 107 658 548 spatvi 0;
#X obj 0 0 cnv 15 100 100 \$0-map1s \$0-map1r empty 20 12 0 14 #202020 #404040 0;
#X obj 232 162 f;
#X msg 210 141 bang;
#X obj 45 45 cnv 10 10 10 \$0-mov1s \$0-mov1r empty 20 12 0 14 #fcfcfc #404040 0;
#X floatatom 247 125 5 0 190 0 - - - 0;
#X floatatom 278 167 5 0 190 0 - - - 0;
#X floatatom 247 42 5 0 0 0 - - - 0;
#X obj 247 61 + 1;
#X obj 247 83 / 2;
#X floatatom 285 78 5 0 0 0 - - - 0;
#X obj 285 97 + 1;
#X obj 285 119 / 2;
#X obj 285 141 * 90;
#X obj 247 105 * 90;
#X text 176 120 x-position;
#X text 321 167 y-position;
#X obj 247 20 r \$0-spatvisux;
#X obj 285 56 r \$0-spatvisuy;
#X obj 232 185 pack 0 0 \$0;
#X obj 37 166 loadbang;
#X obj 37 187 pack \$0;
#X msg 232 208 \; \$3-mov1r pos \$1 \$2 \; \$3-mov1r vis_size 10 10 \; \$3-mov1r color 0 \;;
#X obj 37 344 loadbang;
#X obj 37 365 pack \$0;
#X obj 45 0 cnv 10 10 10 empty \$0-mapd D 2 5 1 10 #202020 #fcfcfc 0;
#X obj 90 45 cnv 10 10 10 empty \$0-mapa A 2 5 1 10 #202020 #fcfcfc 0;
#X obj 45 90 cnv 10 10 10 empty \$0-mapb B 2 5 1 10 #202020 #fcfcfc 0;
#X obj 0 45 cnv 10 10 10 empty \$0-mapc C 2 5 1 10 #202020 #fcfcfc 0;
#X msg 37 386 \; \$1-mapa pos 90 45 \; \$1-mapb pos 45 90 \; \$1-mapc pos 0 45 \; \$1-mapd pos 45 0 \;;
#X msg 37 209 \; \$1-map1r pos 0 0 \; \$1-map1r vis_size 100 100 \; \$1-map1r color 12 \;;
#X connect 1 0 18 0;
#X connect 2 0 1 0;
#X connect 4 0 1 1;
#X connect 4 0 2 0;
#X connect 5 0 2 0;
#X connect 5 0 18 1;
#X connect 6 0 7 0;
#X connect 7 0 8 0;
#X connect 8 0 13 0;
#X connect 9 0 10 0;
#X connect 10 0 11 0;
#X connect 11 0 12 0;
#X connect 12 0 5 0;
#X connect 13 0 4 0;
#X connect 16 0 6 0;
#X connect 17 0 9 0;
#X connect 18 0 21 0;
#X connect 19 0 20 0;
#X connect 20 0 29 0;
#X connect 22 0 23 0;
#X connect 23 0 28 0;
#X coords 0 -1 1 1 100 100 2 0 0;
#X restore 5 25 pd spatvi;
#X obj 8 129 hsl 95 15 0 127 0 0 empty \$0-speedstart empty -2 -8 0 10 #000000 #fcfcfc #000000 0 1;
#X obj 113 129 hsl 80 15 0 127 0 0 empty \$0-rayonstart empty -2 -8 0 10 #000000 #fcfcfc #000000 0 1;
#X obj 110 214 s \$0-rayon;
#X obj 5 214 s \$0-speed;
#X obj 81 337 r \$0-rayon;
#X obj 81 359 / 127;
#X obj 150 295 r \$0-speed;
#X obj 150 317 / 127;
#X obj 150 339 * 4;
#X obj 150 361 - 2;
#X obj 378 95 inlet~;
#X obj 426 35 r \$0-volsource;
#X obj 218 70 s \$0-volsource;
#X obj 8 5 hsl 95 15 0 127 0 0 empty \$0-volumestart empty 110 8 1 10 #000000 #fcfcfc #000000 0 1;
#X obj 534 169 pack \$0 127 70 0;
#X obj 555 71 inlet;
#X obj 555 140 t b f;
#X obj 592 140 t b f;
#X obj 629 140 t b f;
#X obj 555 93 clip 0 1;
#X obj 555 115 * 127;
#X obj 611 29 inlet;
#X obj 611 115 * 127;
#X obj 667 71 inlet;
#X obj 667 93 clip 0 1;
#X obj 667 115 * 127;
#X obj 111 -24 / 127;
#X obj 16 239 / 127;
#X obj 124 235 / 127;
#X obj 111 5 nbx 5 15 -1e+37 1e+37 0 0 empty empty empty 0 -8 0 10 #000000 #fcfcfc #000000 0 256;
#X obj 5 149 nbx 5 15 -1e+37 1e+37 0 0 empty empty empty 0 -8 0 10 #000000 #fcfcfc #000000 0 256;
#X obj 110 149 nbx 5 15 -1e+37 1e+37 0 0 empty empty empty 0 -8 0 10 #000000 #fcfcfc #000000 0 256;
#X obj 16 261 * 2;
#X obj 16 283 - 1;
#X msg 534 191 \; \$1-rayonstart \$4 \; \$1-speedstart \$3 \; \$1-volumestart \$2 \;;
#X obj 611 51 clip -1 1;
#X obj 611 73 + 1;
#X obj 611 95 / 2;
#X obj 128 173 cnv 10 68 10 empty empty ©stephcl-_2016 2 5 1 9 #606060 #fcfcfc 0;
#X floatatom 494 155 5 0 0 0 - - - 0;
#X connect 1 0 2 0;
#X connect 2 0 13 0;
#X connect 3 0 5 1;
#X connect 4 0 5 0;
#X connect 6 0 1 0;
#X connect 9 0 8 0;
#X connect 10 0 11 0;
#X connect 10 0 54 0;
#X connect 11 0 12 0;
#X connect 12 0 9 1;
#X connect 15 0 18 0;
#X connect 15 0 42 0;
#X connect 16 0 17 0;
#X connect 16 0 43 0;
#X connect 19 0 20 0;
#X connect 20 0 4 0;
#X connect 21 0 22 0;
#X connect 22 0 23 0;
#X connect 23 0 24 0;
#X connect 24 0 3 0;
#X connect 25 0 9 0;
#X connect 26 0 10 0;
#X connect 28 0 27 0;
#X connect 28 0 41 0;
#X connect 29 0 49 0;
#X connect 30 0 34 0;
#X connect 31 0 29 0;
#X connect 31 1 29 1;
#X connect 32 0 29 0;
#X connect 32 1 29 2;
#X connect 33 0 29 0;
#X connect 33 1 29 3;
#X connect 34 0 35 0;
#X connect 35 0 31 0;
#X connect 36 0 50 0;
#X connect 37 0 32 0;
#X connect 38 0 39 0;
#X connect 39 0 40 0;
#X connect 40 0 33 0;
#X connect 41 0 44 0;
#X connect 42 0 47 0;
#X connect 43 0 46 0;
#X connect 47 0 48 0;
#X connect 48 0 45 0;
#X connect 50 0 51 0;
#X connect 51 0 52 0;
#X connect 52 0 37 0;
#X coords 0 -1 1 1 200 185 2 0 0;
